<?xml version="1.0" encoding="UTF-8" standalone="no"?>
<!-- Created with Inkscape (http://www.inkscape.org/) -->

<svg
   version="1.1"
   id="svg1"
   width="400"
   height="400"
   viewBox="0 0 868.47996 1081.3497"
   sodipodi:docname="BigCat15d.svg"
   inkscape:version="1.3.2 (091e20ef0f, 2023-11-25)"
   xmlns:inkscape="http://www.inkscape.org/namespaces/inkscape"
   xmlns:sodipodi="http://sodipodi.sourceforge.net/DTD/sodipodi-0.dtd"
   xmlns="http://www.w3.org/2000/svg"
   xmlns:svg="http://www.w3.org/2000/svg">
  <defs
     id="defs1" />
  <sodipodi:namedview
     id="namedview1"
     pagecolor="#ffffff"
     bordercolor="#000000"
     borderopacity="0.25"
     inkscape:showpageshadow="2"
     inkscape:pageopacity="0.0"
     inkscape:pagecheckerboard="0"
     inkscape:deskcolor="#d1d1d1"
     showgrid="false"
     inkscape:zoom="0.60495988"
     inkscape:cx="476.89113"
     inkscape:cy="549.62322"
     inkscape:window-width="1920"
     inkscape:window-height="1011"
     inkscape:window-x="0"
     inkscape:window-y="0"
     inkscape:window-maximized="1"
     inkscape:current-layer="layer1" />
  <g
     inkscape:groupmode="layer"
     id="layer1"
     inkscape:label="Layer 1"
     transform="translate(-61.941159,-115.98363)">
    <path
       id="path1"
       style="fill:#000000"
       d="M 343.85522 116.00316 C 340.32074 116.41577 340.00932 123.70858 340.04663 141.93285 C 340.08849 162.3914 341.11718 172.45343 344.7771 188.22191 C 345.59132 191.72991 345.53267 191.76271 340.46655 190.67504 C 323.88729 187.11557 299.62663 188.13344 275.37671 193.40746 C 263.50853 195.98862 258.86786 198.42471 260.57007 201.17894 C 261.05762 201.96783 267.03067 205.28699 273.84155 208.5559 C 285.64173 214.21943 300.31997 225.3963 298.45874 227.30004 C 297.9775 227.79226 295.27749 227.54053 292.45874 226.74144 C 283.9307 224.32385 264.08256 223.54983 253.41772 225.21801 C 230.60349 228.78655 201.99975 241.56245 201.99975 248.1848 C 201.99975 251.09674 202.65495 251.38983 210.73217 252.08519 C 215.53532 252.49868 222.13865 254.13045 225.406 255.71215 C 233.73079 259.7421 245.62963 272.07031 246.19702 277.25316 C 246.47518 279.794 246.01896 281.39804 244.98803 281.50511 C 244.07753 281.59967 241.83309 281.84902 239.99975 282.05785 C 238.16642 282.26669 233.28094 282.76839 229.14233 283.17504 C 225.00373 283.5817 219.00306 284.88516 215.80835 286.07152 C 212.61363 287.25789 207.45039 288.87927 204.33374 289.67308 C 201.21707 290.46688 198.66577 291.61408 198.66577 292.22386 C 198.66577 292.83365 197.61707 293.3361 196.33374 293.3391 C 195.05041 293.34217 191.04878 294.84281 187.44116 296.67308 C 183.83354 298.50334 180.08289 299.99926 179.10717 299.99926 C 178.13146 299.99926 177.33374 300.59991 177.33374 301.33324 C 177.33374 302.06658 176.58244 302.66908 175.66577 302.67308 C 174.74911 302.67672 172.19975 304.13551 169.99975 305.91527 C 166.0651 309.09833 166.04267 309.1855 168.66577 311.20043 C 170.13244 312.32704 172.53308 313.35838 173.99975 313.4934 C 175.46641 313.62842 177.26641 313.83383 177.99975 313.94847 C 189.52883 315.75078 192.05604 316.34579 192.7146 317.41136 C 193.14164 318.10232 194.51399 318.66722 195.76538 318.66722 C 199.01597 318.66722 209.99975 324.77214 209.99975 326.57933 C 209.99975 327.53311 206.19439 328.30578 199.75171 328.65746 C 180.59517 329.70313 164.55782 335.12933 146.66577 346.6223 C 124.53709 360.83668 114.93417 373.17879 126.66577 372.32738 C 143.94773 371.07317 147.87992 371.5391 156.37085 375.84886 C 167.64002 381.5688 171.84252 385.2105 172.77514 390.05785 C 173.51464 393.90142 172.88924 394.62291 160.88257 403.76683 C 143.29883 417.15805 134.41776 427.04447 131.42358 436.56371 C 128.0657 447.2393 127.00602 468.26087 128.26147 499.30394 C 129.0305 518.3195 128.90458 527.28556 127.81811 530.63793 C 125.43762 537.98305 115.86341 556.34137 104.22632 575.87621 C 98.369502 585.70785 93.887392 594.55721 94.265378 595.54222 C 95.086851 597.68295 100.80247 597.93773 102.06811 595.88988 C 103.706 593.23971 136.94758 580.50372 138.40991 581.96605 C 139.41873 582.97487 135.19052 588.67661 126.71264 597.73949 C 115.35438 609.8815 110.64672 622.42196 102.73217 661.6184 C 100.55351 672.40816 97.611141 683.50753 96.193112 686.28441 C 92.199018 694.10591 82.802545 706.26603 71.423581 718.33715 C 60.884098 729.51772 59.405132 733.33778 65.624753 733.32738 C 67.297767 733.32457 76.16708 731.83108 85.333737 730.00707 C 94.500394 728.18307 107.24366 726.29612 113.6521 725.81371 L 125.30249 724.93675 L 127.4021 729.95824 C 128.95271 733.66941 129.49226 739.50838 129.47046 752.32738 C 129.43787 771.45571 129.28584 770.92962 139.81811 787.96215 C 145.37876 796.95468 146.02404 798.85393 146.45874 807.46215 C 147.74699 832.97327 129.90099 869.27913 107.45483 886.8098 C 103.35455 890.01216 99.999753 893.61216 99.999753 894.81175 C 99.999753 898.24015 111.37199 907.84811 120.42749 912.06957 C 134.53688 918.64702 144.05774 920.45898 163.99975 920.36058 C 184.32575 920.26032 204.39456 917.18478 226.5935 910.76879 C 234.2534 908.55491 240.78733 907.0095 241.11303 907.33519 C 243.38163 909.6038 216.38034 936.8829 203.1853 945.65355 C 185.20985 957.60171 164.23252 966.39256 143.58178 970.63207 C 138.8869 971.59591 135.51377 973.04939 135.0271 974.31761 C 132.28219 981.47074 157.84635 1009.4088 174.66577 1017.636 C 192.48426 1026.352 203.10377 1028.597 226.66577 1028.634 C 241.76955 1028.6575 250.37825 1028.0106 258.64428 1026.2297 C 264.86505 1024.8894 270.56441 1023.6901 271.3103 1023.5637 C 275.07886 1022.9251 272.76631 1058.4759 267.89624 1076.05 C 263.12059 1093.2836 251.85905 1110.7242 242.1521 1115.9192 C 236.39858 1118.9984 237.53832 1123.1883 244.99975 1126.3879 C 261.40973 1133.4243 281.47137 1135.8631 302.67749 1133.3977 C 328.71612 1130.3706 358.40448 1120.6591 378.44702 1108.6125 C 383.88693 1105.3428 388.71255 1102.6815 389.16967 1102.6985 C 389.6268 1102.7158 391.79975 1105.1753 393.99975 1108.1653 C 406.64618 1125.3531 460.51292 1170.6132 491.40991 1190.011 C 497.82506 1194.0385 504.59925 1197.3332 506.4646 1197.3332 C 508.32993 1197.3332 512.01946 1195.8344 514.66186 1194.0032 C 523.4717 1187.8979 550.70116 1154.9317 574.25757 1121.8528 L 585.75757 1105.7043 L 596.54467 1110.7063 C 624.40706 1123.6237 639.31604 1126.7713 674.66577 1127.1985 C 704.22867 1127.5557 718.95987 1129.5117 752.36694 1137.5129 C 761.73584 1139.7568 770.28585 1141.252 771.36694 1140.8371 C 774.35314 1139.6912 773.71611 1134.963 770.33374 1133.1731 C 760.35598 1127.8931 747.18991 1112.9158 740.00757 1098.675 C 731.35941 1081.5279 723.04797 1050.5181 720.58764 1026.22 L 719.66577 1017.1086 L 725.12475 1019.8938 C 735.09432 1024.9799 745.90216 1026.6372 767.99975 1026.4719 C 779.36641 1026.3869 793.16099 1025.9475 798.65405 1025.4934 C 812.55639 1024.344 812.4797 1022.8517 797.73217 1007.5813 C 775.99862 985.0772 769.09524 968.30327 773.37671 948.39965 C 775.60905 938.02199 775.48013 938.0522 788.73022 944.71996 C 818.54407 959.72298 851.00647 959.94976 881.99975 945.3723 C 896.30215 938.64528 904.29007 932.67439 903.74975 929.11449 C 903.42514 926.97575 900.67461 925.41438 891.33374 922.06761 C 877.95034 917.27245 866.56294 911.78841 864.41772 909.10472 C 858.89726 902.19858 864.10044 864.52419 874.1853 838.38402 C 876.77068 831.68266 878.66638 824.34806 878.66577 821.05004 C 878.66424 812.7651 872.3777 800.59282 862.82788 790.38402 L 854.66577 781.65941 L 854.64428 761.82933 C 854.61934 740.46772 852.69371 727.86711 848.07202 718.80785 L 845.27905 713.33324 L 855.72436 713.33324 C 870.44399 713.33324 907.56923 708.19571 924.47241 703.81957 C 929.0908 702.62389 929.5455 702.12735 928.9685 698.91136 C 928.61543 696.94346 924.6148 686.93388 920.07788 676.66722 C 907.83865 648.97095 900.29151 625.70349 898.76538 610.95238 C 896.90802 592.99984 889.78744 579.06706 870.11499 554.90355 C 865.14646 548.80076 861.46756 543.40075 861.93921 542.90355 C 862.41086 542.40635 877.91711 534.49989 896.39819 525.33324 C 917.70936 514.76285 930.14862 507.8607 930.406 506.4641 C 930.68146 504.96941 927.2556 501.93279 919.73999 497.00902 C 904.96423 487.32885 895.68272 479.82215 891.15796 473.88988 C 888.15417 469.9517 887.24131 467.01565 886.4685 458.83129 C 885.68464 450.52988 884.40127 446.4881 879.47046 436.78246 L 873.43139 424.89574 L 888.71655 407.24926 C 897.65693 396.92617 903.99975 388.44853 903.99975 386.82543 C 903.99975 383.53725 906.18742 384.10221 869.33374 377.85863 C 839.74127 372.84522 834.0199 371.45642 835.18725 369.56761 C 835.56231 368.96076 839.80268 366.46818 844.60913 364.02855 C 853.48956 359.52109 857.22209 359.06143 874.66577 360.32738 C 878.51116 360.60646 879.40326 360.17781 879.73022 357.88988 C 880.0111 355.92435 877.86837 353.09122 872.39624 348.18871 C 863.4525 340.17595 864.19685 340.74461 854.66577 334.6223 C 836.77372 323.12933 820.73832 317.70314 801.58178 316.65746 C 795.1391 316.30578 791.33374 315.53312 791.33374 314.57933 C 791.33374 312.77215 802.31753 306.66722 805.56811 306.66722 C 806.81951 306.66722 808.19186 306.10232 808.61889 305.41136 C 809.27746 304.34579 811.80466 303.75078 823.33374 301.94847 C 824.06707 301.83383 825.86707 301.62842 827.33374 301.4934 C 828.80041 301.35838 831.19911 300.32704 832.66577 299.20043 C 835.28888 297.1855 835.26839 297.09833 831.33374 293.91527 C 829.13374 292.13551 826.58244 290.67708 825.66577 290.67308 C 824.74911 290.66943 823.99975 290.06657 823.99975 289.33324 C 823.99975 288.59991 823.20202 287.99926 822.22632 287.99926 C 821.2506 287.99925 817.49994 286.50335 813.89233 284.67308 C 810.28471 282.84282 806.28308 281.3421 804.99975 281.3391 C 803.71642 281.33603 802.66577 280.83365 802.66577 280.22386 C 802.66577 279.61408 800.11642 278.46688 796.99975 277.67308 C 793.88309 276.87927 788.71986 275.25789 785.52514 274.07152 C 779.73997 271.92319 770.27722 270.56991 758.44507 270.19652 C 750.89458 269.95825 749.86167 269.1429 753.23608 266.0891 C 754.65779 264.80247 755.52993 262.9931 755.17553 262.06957 C 754.32012 259.84039 767.30987 248.08901 777.41186 241.95238 C 781.84911 239.25689 790.09689 235.15353 795.73999 232.83324 C 801.38307 230.51294 806.7491 228.14053 807.66577 227.56176 C 810.49049 225.77825 809.51589 220.67032 805.66577 217.07933 C 798.44946 210.34874 790.01837 207.36802 750.06616 197.42504 L 719.4646 189.8098 L 733.06616 180.58519 C 742.36669 174.27771 746.66577 170.55403 746.66577 168.80785 C 746.66577 164.8375 736.97044 156.56573 726.29467 151.4309 C 711.31814 144.22747 697.04477 141.18027 674.52514 140.37621 C 651.42618 139.55147 640.27133 141.37163 619.11889 149.41527 C 611.52285 152.30382 603.89541 154.66722 602.16967 154.66722 C 600.44394 154.66722 590.10069 150.41282 579.18335 145.2141 C 553.26371 132.87141 542.59279 129.33324 531.29077 129.33324 C 519.72697 129.33324 512.36214 131.32783 481.88061 142.7141 C 440.59664 158.13559 430.95614 159.80581 413.80639 154.51097 C 397.68406 149.53335 373.01292 135.97501 354.31811 121.81761 C 349.25711 117.98497 345.97591 115.7556 343.85522 116.00316 z M 447.30249 294.64965 C 453.15193 294.65904 470.25204 295.93838 485.30249 297.4934 C 512.40931 300.29404 512.81086 300.29789 527.99975 297.82738 C 557.49636 293.0297 623.67963 295.62964 636.14428 302.07543 C 639.24573 303.67925 642.91417 303.79302 657.62866 302.74144 C 667.53016 302.03383 677.57173 301.96895 680.34741 302.59496 C 686.69093 304.02567 705.33374 315.58319 705.33374 318.08519 C 705.33374 319.12777 709.914 324.93423 715.51342 330.98949 C 721.11291 337.04475 730.40729 348.08315 736.16772 355.51879 C 741.9282 362.95437 747.54735 369.38708 748.65405 369.81176 C 749.76075 370.23638 750.66577 371.70916 750.66577 373.08519 C 750.66577 374.46121 751.85123 376.65817 753.29858 377.96801 C 757.03023 381.34504 774.93172 417.12413 779.7771 430.88793 C 788.23429 454.91154 789.74735 470.07735 785.38452 487.13597 C 779.95857 508.35111 765.18775 532.41854 727.8435 580.89769 C 714.75301 597.89148 700.15646 617.28766 695.406 623.99925 C 687.99316 634.47243 686.68044 635.76212 686.14819 633.10082 C 685.8071 631.39533 684.51805 623.39985 683.28296 615.33324 C 679.53339 590.8452 673.08 568.99604 668.46655 565.16722 C 666.93212 563.89381 666.0731 564.02161 664.30835 565.78636 C 662.37322 567.72149 662.31114 568.57209 663.82788 572.3391 C 674.49279 598.82652 680.83888 644.50597 679.69507 686.54808 C 679.18131 705.43082 678.65132 709.80658 676.07202 716.45433 C 671.23671 728.91665 662.94955 739.95655 653.79272 746.13402 C 641.02061 754.75046 639.66599 754.71407 599.79663 744.69066 C 563.38738 735.53716 532.73085 729.33324 523.91186 729.33324 L 518.66577 729.33324 L 518.66577 700.72777 C 518.66577 673.79569 518.85485 671.60078 521.89624 663.22191 C 526.47998 650.59373 534.02893 640.12673 540.64038 637.23168 C 543.58772 635.94103 554.01876 633.35911 563.82007 631.49535 C 584.28919 627.60306 595.5288 622.94632 604.57202 614.61058 C 611.26718 608.4392 612.01355 606.14845 608.02319 604.01293 C 605.83084 602.83962 604.63735 603.31542 601.02319 606.80004 C 596.28786 611.36558 587.47356 617.33324 585.46655 617.33324 C 584.77758 617.33324 583.23343 614.38107 582.03491 610.77269 C 579.14507 602.07223 570.83821 592.79474 563.39038 589.95043 C 553.58884 586.20716 540.21976 587.62097 527.98803 593.69457 C 522.48159 596.42872 516.12155 598.66722 513.85522 598.66722 C 511.5889 598.66722 505.59537 596.46356 500.53491 593.77074 C 492.81301 589.66171 489.6693 588.77676 480.97827 588.26488 C 463.60261 587.24151 452.74875 593.95719 447.14624 609.20043 C 445.90654 612.5733 444.46121 615.83411 443.93335 616.44652 C 442.5563 618.04411 434.92244 613.81992 428.38647 607.843 C 422.8207 602.75335 419.63332 602.22101 418.13257 606.13207 C 416.86026 609.44759 426.435 618.41084 436.49389 623.31957 C 443.10433 626.54538 451.27929 628.97832 463.33374 631.3098 C 472.86701 633.15365 483.20139 635.60661 486.29858 636.76097 C 493.38668 639.4028 498.96242 646.32069 504.82202 659.74144 L 509.30053 669.99925 L 509.31616 699.66722 L 509.33374 729.33324 L 504.83374 729.33324 C 495.6573 729.33324 466.28925 735.19165 430.66577 744.12816 C 410.49923 749.18717 393.3991 753.26822 392.66577 753.19652 C 375.3201 751.50126 359.15912 736.35303 351.71264 714.81175 C 348.86749 706.58112 348.67364 703.9786 348.781 675.33324 C 348.92941 635.73391 353.52939 602.40068 362.13842 578.53441 C 363.89544 573.66361 365.33374 568.76384 365.33374 567.64769 C 365.33374 564.89078 362.06133 563.83106 359.50366 565.75902 C 354.93192 569.20517 347.69164 594.91728 343.93335 621.0559 L 342.3435 632.11058 L 333.50561 619.90355 C 328.64446 613.19012 314.89315 595.01487 302.94702 579.51488 C 243.88867 502.88704 235.54859 479.71445 250.75171 434.48168 C 254.46451 423.4351 266.8923 397.29483 271.08764 391.70629 C 272.89289 389.30155 276.213 383.84246 278.46655 379.57543 C 280.72011 375.30833 284.10009 369.90827 285.97827 367.57543 C 287.85644 365.24252 293.38798 358.23254 298.26928 351.99926 C 307.98447 339.59326 324.60184 320.35267 331.16577 313.90941 C 336.76114 308.41685 348.27193 303.3376 359.78296 301.28051 C 368.02564 299.80745 370.8111 299.89466 381.50952 301.96215 C 394.84712 304.53961 406.24582 304.12065 412.82397 300.81176 C 419.13696 297.63622 435.9496 294.63135 447.30249 294.64965 z M 459.07397 329.35277 C 457.32159 329.44949 455.32392 330.77291 454.11303 333.11449 C 453.03748 335.19449 449.87106 338.58744 447.07788 340.65355 C 428.43709 354.44196 428.65705 357.71106 449.33374 374.32738 C 454.83369 378.74733 460.78833 383.93202 462.56616 385.84886 C 468.33352 392.06741 474.66125 388.92749 470.17163 382.07543 C 469.00529 380.29537 462.04068 373.971 454.69311 368.02074 C 447.34553 362.07047 441.33374 356.68492 441.33374 356.05199 C 441.33374 355.41907 445.2704 352.09077 450.08178 348.65746 C 458.93956 342.33667 463.77717 335.48561 462.23022 331.45433 C 461.65076 329.94428 460.43694 329.27754 459.07397 329.35277 z M 572.92553 329.35277 C 571.56261 329.27754 570.34875 329.94428 569.76928 331.45433 C 568.25498 335.40066 573.03907 342.23704 581.83374 348.69457 C 588.56514 353.6371 590.29269 355.57192 589.4021 357.16332 C 588.76736 358.29752 582.99152 363.44929 576.56616 368.61254 C 563.60653 379.02648 559.23328 384.07699 560.44311 387.22972 C 561.58753 390.21204 565.80432 389.83578 568.79272 386.48558 C 570.18971 384.91946 576.43244 379.42159 582.66577 374.26879 C 596.31276 362.98735 598.59787 360.36495 598.63647 355.92894 C 598.66724 352.39554 594.46133 347.70995 584.92163 340.65355 C 582.1284 338.58744 578.96208 335.19449 577.88647 333.11449 C 576.67559 330.77291 574.67792 329.44949 572.92553 329.35277 z M 322.57007 360.64379 C 321.10228 360.76063 319.99975 361.86019 319.99975 363.88207 C 319.99975 367.43735 327.10501 377.7348 332.79272 382.42308 C 342.0959 390.0916 347.39729 391.31056 363.73999 389.54027 C 398.43495 385.78198 414.44579 389.58385 427.79663 404.75121 C 435.26947 413.24082 437.52585 420.91263 437.49975 437.73168 C 437.47664 452.61093 435.71306 465.35062 429.3396 496.66722 C 424.40522 520.91254 422.81612 538.96687 425.34741 542.01683 C 426.30487 543.1705 428.04325 543.93166 429.21069 543.70824 C 430.86557 543.39155 431.56727 540.66108 432.39624 531.31761 C 432.98105 524.7263 435.52385 508.83247 438.04663 495.99926 C 447.0524 450.18694 448.44425 434.05372 444.64819 419.47972 C 439.80827 400.89791 423.23502 385.80639 402.9353 381.49926 C 394.38424 379.6849 378.18826 379.60647 362.06811 381.30199 C 345.04854 383.09211 340.85487 380.91855 327.33374 363.29808 C 325.87155 361.39266 324.0378 360.52695 322.57007 360.64379 z M 709.44116 360.66136 C 707.97738 360.51135 706.14398 361.3086 704.66967 363.13011 C 703.20092 364.9449 699.9513 368.96088 697.44702 372.05394 C 690.28962 380.89433 684.57628 382.77021 669.3103 381.29418 C 642.39867 378.69216 627.8833 380.04858 615.33374 386.3391 C 595.33332 396.36441 585.32195 413.14565 585.34155 436.61254 C 585.35077 447.62364 587.42576 462.10253 593.8728 496.11449 C 596.45628 509.74378 598.86891 525.51382 599.23413 531.15941 C 599.59934 536.80507 600.25729 542.00382 600.69507 542.71215 C 602.073 544.94173 605.1781 544.11499 606.79858 541.08715 C 609.13559 536.72041 607.54478 521.85258 601.33374 489.99926 C 590.26849 433.25129 591.55864 415.68014 607.86694 400.94652 C 621.35332 388.76239 635.83028 386.02742 668.25952 389.54027 C 684.60216 391.31056 689.9036 390.0916 699.20678 382.42308 C 704.89456 377.7348 711.99975 367.43735 711.99975 363.88207 C 711.99975 361.90941 710.90494 360.81137 709.44116 360.66136 z M 380.54858 409.39379 C 368.87038 409.50493 356.02928 412.78239 342.91772 419.38793 C 329.92263 425.93477 319.53131 434.58308 320.23999 438.26293 C 320.94309 441.91388 325.21241 441.93674 329.13257 438.3098 C 333.02281 434.71054 342.79084 427.99926 344.14038 427.99926 C 344.61018 427.99925 345.28528 431.02442 345.64038 434.71996 C 347.78541 457.04371 385.48178 468.77067 411.96069 455.35277 C 415.54557 453.53617 418.85627 451.43989 419.31811 450.69261 C 420.98762 447.99131 422.59313 449.44153 424.08374 454.99926 C 424.91965 458.11589 425.87897 461.11722 426.2146 461.66722 C 427.27273 463.40115 432.05196 462.75006 432.81225 460.76879 C 433.9763 457.73532 429.66218 442.99162 425.11499 434.46019 C 416.24468 417.8178 400.01225 409.20855 380.54858 409.39379 z M 651.49194 409.40746 C 632.03029 409.20857 615.78232 417.76626 606.96264 434.31371 C 602.1352 443.37095 597.93579 457.50662 599.14038 460.64574 C 599.65937 461.9982 601.13267 462.68841 602.94116 462.42699 C 605.14814 462.10796 606.32174 460.51985 607.58569 456.13988 C 608.51582 452.91672 609.55029 450.00535 609.88452 449.67113 C 610.21874 449.33691 612.48036 450.57171 614.91186 452.41332 C 625.6383 460.5375 648.92269 463.32789 663.57007 458.24535 C 677.60154 453.37648 686.66577 443.35837 686.66577 432.71996 C 686.66577 430.12408 687.23494 427.99926 687.92944 427.99926 C 688.62394 427.99926 693.19459 431.03006 698.08764 434.73363 C 707.11353 441.56529 710.93365 442.55129 711.75952 438.26293 C 712.46819 434.58308 702.07878 425.93476 689.08374 419.38793 C 676.00417 412.7985 663.16894 409.52679 651.49194 409.40746 z M 514.55249 736.99144 C 534.56829 736.98891 554.39888 741.85481 592.66577 751.58519 C 631.88273 761.55716 634.74699 762.06998 642.00366 760.40941 C 647.53953 759.14262 647.99975 759.23803 647.99975 761.6555 C 647.99975 765.84585 640.49276 787.08796 635.5271 796.94847 C 625.74829 816.36659 610.05108 831.82715 597.77514 834.13011 C 592.47784 835.1239 571.56875 834.33905 538.33374 831.89965 C 520.58876 830.59715 511.41073 830.60247 493.66577 831.92308 C 455.27198 834.7804 434.65412 835.02973 429.50952 832.69847 C 411.62383 824.59368 396.47753 803.78646 387.45874 774.9309 C 382.84182 760.15913 382.83573 760.19686 389.66577 760.96019 C 393.83884 761.42657 405.8767 758.96101 435.33374 751.60472 C 474.33664 741.86457 494.53669 736.99397 514.55249 736.99144 z " />
  </g>
</svg>
