<?xml version="1.0" encoding="UTF-8" standalone="no"?>
<!-- Created with Inkscape (http://www.inkscape.org/) -->

<svg
   version="1.1"
   id="svg1"
   width="400"
   height="400"
   viewBox="0 0 661.86206 740.60956"
   sodipodi:docname="41d.svg"
   inkscape:version="1.3.2 (091e20ef0f, 2023-11-25)"
   xmlns:inkscape="http://www.inkscape.org/namespaces/inkscape"
   xmlns:sodipodi="http://sodipodi.sourceforge.net/DTD/sodipodi-0.dtd"
   xmlns="http://www.w3.org/2000/svg"
   xmlns:svg="http://www.w3.org/2000/svg">
  <defs
     id="defs1" />
  <sodipodi:namedview
     id="namedview1"
     pagecolor="#ffffff"
     bordercolor="#000000"
     borderopacity="0.25"
     inkscape:showpageshadow="2"
     inkscape:pageopacity="0.0"
     inkscape:pagecheckerboard="0"
     inkscape:deskcolor="#d1d1d1"
     showgrid="false"
     inkscape:zoom="0.87124063"
     inkscape:cx="330.5631"
     inkscape:cy="366.71843"
     inkscape:window-width="1920"
     inkscape:window-height="1011"
     inkscape:window-x="0"
     inkscape:window-y="0"
     inkscape:window-maximized="1"
     inkscape:current-layer="layer1" />
  <g
     inkscape:groupmode="layer"
     id="layer1"
     inkscape:label="Layer 1"
     transform="translate(-24.439943,-30.625626)">
    <path
       id="path2"
       style="fill:#ffd42a"
       d="m 490.08838,30.80922 c -0.65264,-1.055986 -4.99983,2.462398 -12.8457,10.398437 -18.43234,18.644152 -44.09175,34.573356 -79.24219,49.191406 -24.12087,10.031167 -22,10.117687 -22,-0.896484 0,-5.139467 -0.56834,-9.696465 -1.26172,-10.125 -0.69338,-0.428535 -3.6347,2.718214 -6.53711,6.992188 -11.47127,16.892193 -27.42365,28.166283 -60.65625,42.869143 -26.00784,11.50646 -40.21103,18.90556 -51.23047,26.68554 -15.063,10.63483 -23.36209,25.63818 -21.08984,38.12696 1.28579,7.06701 12.90665,18.04569 28.17187,26.61328 6.26563,3.51658 12.2658,7.6379 13.33204,9.16015 3.53401,5.04552 2.34168,10.55307 -4.54493,21.00391 -8.23533,12.4976 -23.67748,30.50391 -26.16015,30.50391 -2.50342,0 -8.69141,-2.84767 -8.69141,-4 0,-0.49791 1.46775,-1.57325 3.26172,-2.39063 4.76536,-2.17125 14.07227,-10.92916 14.07227,-13.24219 0,-1.55526 -0.7995,-1.74267 -3.66602,-0.85937 -2.01666,0.62143 -6.96666,1.13653 -11,1.14453 -6.28828,0.0126 -9.03373,-0.91836 -19.26563,-6.5332 l -11.93359,-6.54688 4.57227,-3.45312 c 5.31308,-4.01162 10.62695,-9.41577 10.62695,-10.8086 0,-0.53202 -4.65066,-1.26653 -10.33398,-1.63281 -7.96503,-0.51333 -12.88121,-1.77615 -21.45118,-5.50586 -6.11498,-2.66127 -12.56563,-4.83789 -14.33398,-4.83789 -4.27029,0 -4.05404,-1.37956 0.95312,-6.08398 4.6755,-4.39282 9.09242,-12.96722 9.13672,-17.73828 0.0336,-3.61638 -0.7798,-3.5453 -13.9707,1.20312 -9.07794,3.26786 -27.90302,3.75634 -52,1.35156 -22.770198,-2.27236 -29.746544,-1.84194 -37.289063,2.29883 -3.642194,1.99954 -8.441549,6.08721 -10.666015,9.08399 l -4.044922,5.44921 -15.314453,0.85157 c -13.868292,0.77208 -15.818388,1.204 -20.666016,4.57617 -7.079312,4.92458 -10.54075,11.97525 -9.347656,19.03711 0.659817,3.90542 3.247458,8.10859 9.640625,15.6543 4.807175,5.67379 9.450509,10.4902 10.318359,10.70312 0.86785,0.21292 3.190353,-0.22569 5.160156,-0.97461 3.272235,-1.2441 3.509258,-1.809 2.751954,-6.54492 -0.708584,-4.43124 -0.377667,-5.49974 2.277343,-7.35938 6.344531,-4.44388 21.388637,-1.67288 29.791016,5.48633 2.370781,2.02001 5.449788,4.33679 6.84375,5.14844 2.001764,1.16555 -0.896351,1.67949 -13.792969,2.44922 l -16.330078,0.97461 v 4.97851 c 0,9.8106 16.532426,22.15433 36.710938,27.41016 4.317211,1.12449 9.120301,2.04492 10.673831,2.04492 4.3678,0 14.29385,7.25237 19.11718,13.96875 10.42596,14.51789 18.4134,38.15666 24.79102,73.36524 4.27424,23.59651 7.03286,32.50219 14.24805,46 12.10079,22.63756 30.69586,42.16776 60.45898,63.5 11.24495,8.05964 37.73561,23.58644 50.8457,29.80273 l 9.51172,4.50977 2.88867,22.09375 c 1.58933,12.15112 3.79233,27.11299 4.89454,33.24804 1.10224,6.13506 1.59286,13.0281 1.08984,15.31836 -1.45954,6.64522 -29.1194,66.05541 -33.04297,70.97266 -4.63828,5.81298 -13.79219,8.54478 -28.76172,8.58398 -9.92703,0.026 -12.47449,0.54698 -19.42578,3.97071 -4.39999,2.16713 -8.61229,3.95235 -9.36133,3.96875 -0.74904,0.0164 -5.12436,3.4806 -9.72265,7.69726 -6.07482,5.57063 -9.04257,9.50188 -10.85547,14.37695 l -2.49414,6.70899 6.4082,13.29101 c 3.52516,7.30983 7.92306,14.69708 9.77148,16.41602 3.33344,3.09991 3.3711,3.10227 4.80665,0.41992 0.79601,-1.48738 1.44726,-6.16437 1.44726,-10.39258 0,-8.60547 0.70827,-8.40632 5.89649,1.64844 1.93016,3.74067 4.9442,8.14801 6.69726,9.79492 l 3.1875,2.99414 1.81055,-3.45703 1.81054,-3.45703 4.26563,8.39844 c 2.34619,4.61864 5.73064,9.77256 7.51953,11.45312 3.23192,3.03624 3.26107,3.03877 4.69922,0.35157 0.79603,-1.48739 1.44727,-6.16438 1.44727,-10.39258 0,-8.38631 0.6447,-8.28586 5.42773,0.8457 1.72851,3.3 4.65262,7.67677 6.49805,9.72656 3.10507,3.44894 3.48226,3.55453 5.04882,1.41211 0.93105,-1.27329 1.7017,-5.65005 1.7129,-9.72656 0.0302,-10.94875 1.50478,-11.89749 5.67968,-3.65234 4.42128,8.73172 9.50846,13.91313 11.13282,11.33984 0.61344,-0.97182 1.48079,-6.12307 1.92578,-11.44922 1.01893,-12.19556 3.73121,-15.60789 13.30859,-16.74219 6.84097,-0.81021 14.59977,-5.22394 24.26953,-13.80273 2.75211,-2.44161 5.52963,-4.43945 6.17188,-4.43945 1.40576,0 4.80682,-7.79473 3.82812,-8.77344 -0.94483,-0.94482 4.08184,-10.42292 23.62695,-44.55859 13.81033,-24.11981 20.72775,-35.11552 22.9004,-36.40039 0.99163,-0.58644 1.80273,-1.809 1.80273,-2.7168 0,-0.90779 3.07018,-4.62848 6.82422,-8.26758 3.75403,-3.6391 7.95018,-9.01589 9.32422,-11.94922 3.24277,-6.92279 8.21988,-12.42854 16.68164,-18.45117 5.03247,-3.58184 7.58916,-6.62046 9.70508,-11.53906 1.57976,-3.67227 3.61642,-6.67578 4.52539,-6.67578 0.90897,0 3.07652,3.7487 4.81836,8.33203 24.4527,64.34289 44.68082,101.59879 67.61523,124.5332 12.94742,12.94742 14.37782,13.31615 27.04883,6.98438 9.76032,-4.8773 11.25259,-7.64401 10.11523,-18.75977 -0.4365,-4.2661 -0.37417,-7.75781 0.13867,-7.75781 0.51285,0 4.2066,2.6949 8.20704,5.98828 l 7.27343,5.98828 7.86719,-5.51953 c 4.3277,-3.03571 9.97209,-7.37996 12.54297,-9.6543 l 4.67578,-4.13476 -6.60742,-13.66797 c -3.63342,-7.51666 -6.05082,-13.66602 -5.37305,-13.66602 0.67777,0 6.28289,2.40066 12.45703,5.33399 6.17415,2.93332 12.01993,5.33203 12.99024,5.33203 2.2503,0 18.50195,-16.03547 18.50195,-18.25586 0,-2.88499 -6.51643,-16.55045 -12.13281,-25.44336 -2.96866,-4.70054 -5.08945,-8.85586 -4.71289,-9.23242 0.37657,-0.37656 7.27801,2.38048 15.33594,6.125 8.05791,3.74451 15.2906,6.80664 16.07226,6.80664 0.78165,0 4.81798,-5.10557 8.9707,-11.34571 8.74694,-13.14365 8.76914,-12.8691 -2.14257,-26.58203 -14.99169,-18.84031 -46.66919,-41.68466 -98.05664,-70.71484 -45.52324,-25.71732 -53.25439,-30.29967 -59.33399,-35.16406 -4.77765,-3.82269 -23.93368,-21.06932 -55.7832,-50.22266 -1.44837,-1.32576 -0.98173,-1.75162 2.48047,-2.25977 3.7309,-0.54757 6.46112,0.9965 21.83789,12.3379 21.74555,16.03878 29.69025,21.14412 44.5,28.60156 30.8175,15.51816 59.14081,16.06806 87.58593,1.70117 4.42585,-2.23537 10.14623,-4.31085 12.7129,-4.61328 12.26282,-1.44493 32.00341,-12.83094 43,-24.80078 3.48332,-3.79162 6.33398,-7.35405 6.33398,-7.91602 0,-1.01432 -2.83087,-1.5662 -6.66797,-1.30273 -18.02251,1.23752 -21.77383,1.22655 -18.66601,-0.0488 14.03167,-5.75833 18.72929,-8.85086 28.69726,-18.89258 11.21731,-11.30029 19.95924,-24.77734 16.07227,-24.77734 -1.13469,0 -7.02096,1.43013 -13.08203,3.17773 -6.06108,1.74761 -14.32018,3.53549 -18.35352,3.97266 l -7.33398,0.79492 6.66601,-1.80664 c 10.82981,-2.93471 18.15348,-5.95744 24.86719,-10.26563 8.39048,-5.38415 22.22206,-20.26069 26.88281,-28.91211 4.43567,-8.23361 3.88124,-8.48294 -9.53516,-4.27734 -11.26612,3.53157 -12.24393,3.34996 -6.08007,-1.12891 12.1612,-8.83676 28.20243,-30.41865 24.99414,-33.62695 -0.67733,-0.67733 -5.56105,0.21811 -11.53516,2.11524 -13.18179,4.18599 -14.69419,4.12197 -8.92578,-0.38282 13.09986,-10.23022 22.70011,-25.03186 25.93945,-39.99218 1.19831,-5.53415 -0.34362,-5.56094 -8.22461,-0.13868 -5.88767,4.05083 -21.53173,10.38566 -25.79101,10.44336 -1.2526,0.017 0.73956,-2.87786 5.02539,-7.30273 3.90572,-4.03244 9.98623,-11.75183 13.51172,-17.15234 6.33645,-9.70647 13.2681,-25.56589 11.81054,-27.02344 -0.41398,-0.41399 -4.81839,1.68247 -9.78711,4.6582 -4.96871,2.97572 -9.31659,5.12676 -9.6621,4.78125 -0.34551,-0.34551 0.88134,-2.27028 2.72656,-4.2793 7.24051,-7.88323 12.72986,-18.57454 15.05664,-29.32031 1.18903,-5.49131 -0.34718,-5.55614 -7.93164,-0.33789 -6.10688,4.20165 -9.70963,5.86224 -19.01172,8.77149 l -5.66992,1.77343 4.81836,-4.93554 c 9.30033,-9.5308 15.89588,-21.41624 18.46289,-33.27149 1.18736,-5.4836 -0.34996,-5.55578 -7.88282,-0.37305 -3.16531,2.1778 -8.77144,5.14807 -12.45898,6.60157 -6.5813,2.5941 -29.35654,7.45791 -30.33594,6.47851 -0.27427,-0.27427 2.13775,-5.57553 5.35938,-11.78125 6.57166,-12.65878 10.58784,-25.75552 12.75586,-41.58984 1.69004,-12.34335 0.24539,-16.07087 -3.41992,-8.82227 -4.48041,8.86056 -12.95588,18.71719 -22.86524,26.5918 -5.54664,4.40771 -10.35319,7.74447 -10.68164,7.41602 -0.32845,-0.32845 0.62467,-2.99248 2.11914,-5.92188 3.66633,-7.18661 7.73581,-22.26458 9.51563,-35.26367 1.75713,-12.83338 0.22763,-16.04508 -3.8418,-8.06836 -4.3121,8.45242 -12.5764,18.07246 -21.89844,25.49023 -4.77587,3.80028 -9.0571,6.90821 -9.51367,6.90821 -0.45658,0 0.9623,-3.5522 3.1543,-7.89453 4.8564,-9.62048 8.81084,-23.49263 10.76562,-37.76954 1.90689,-13.92713 0.30491,-15.53782 -5.39258,-5.423823 -6.20804,11.020323 -30.08941,33.430103 -32.76953,30.750003 -0.40454,-0.40455 0.486,-3.1331 1.98047,-6.0625 3.66634,-7.18661 7.73581,-22.26458 9.51563,-35.263675 1.75713,-12.833377 0.22763,-16.045086 -3.8418,-8.06836 -3.7612,7.372565 -12.27033,17.84016 -18.54102,22.806645 l -5.3125,4.20703 3.32813,-8.974612 c 2.44106,-6.580766 3.50787,-12.615916 4,-22.638672 0.36908,-7.516659 0.1993,-13.667969 -0.37695,-13.667969 -0.57625,0 -6.67192,5.962291 -13.54493,13.248047 -10.74562,11.390935 -19.44068,18.751953 -22.15039,18.751953 -0.41032,0 1.00382,-3.449354 3.14258,-7.666015 5.32606,-10.500571 7.91797,-21.613936 7.91797,-33.947266 0,-5.712588 -0.31895,-10.386719 -0.70898,-10.386719 -0.39003,0 -7.45737,6.900659 -15.70508,15.333985 -8.24772,8.433324 -15.66571,15.333984 -16.48438,15.333984 -0.97529,0 -0.58656,-2.873886 1.12891,-8.333984 2.6605,-8.468024 3.85666,-29.622583 1.85742,-32.857422 z M 334.29541,617.33266 c 3.48796,0 -27.7515,68.99897 -34.56055,76.33398 -8.41275,9.06259 -12.31319,5.12812 -6.27929,-6.33398 11.60881,-22.05233 39.58257,-70 40.83984,-70 z" />
    <path
       style="fill:#000000"
       d="m 254.59233,768.39358 c -1.84543,-2.0498 -4.76957,-6.42691 -6.49808,-9.72691 -4.78303,-9.13157 -5.42759,-9.232 -5.42759,-0.84568 0,4.22821 -0.65129,8.90461 -1.44732,10.392 -1.43815,2.68721 -1.46793,2.68499 -4.69985,-0.35125 -1.78889,-1.68057 -5.17213,-6.83448 -7.51832,-11.45313 l -4.26579,-8.39755 -1.81117,3.45675 -1.81117,3.45674 -3.1874,-2.9944 c -1.75306,-1.64692 -4.76662,-6.05494 -6.69679,-9.79561 -5.18822,-10.05477 -5.89552,-10.25236 -5.89552,-1.64688 0,4.22821 -0.6513,8.90461 -1.44732,10.39199 -1.43555,2.68235 -1.47466,2.67893 -4.8081,-0.42098 -1.84843,-1.71894 -6.245,-9.1061 -9.77016,-16.41593 l -6.40938,-13.2906 2.49504,-6.7094 c 1.8129,-4.87508 4.78077,-8.80544 10.85559,-14.37607 4.5983,-4.21667 8.9734,-7.68011 9.72244,-7.69655 0.74904,-0.0164 4.96189,-1.80298 9.36189,-3.97012 6.9513,-3.42373 9.49762,-3.94417 19.42466,-3.97012 14.96954,-0.0392 24.12418,-2.77143 28.76247,-8.58442 3.92357,-4.91725 31.58268,-64.32681 33.04222,-70.97203 0.50302,-2.29026 0.0128,-9.18371 -1.08944,-15.31877 -1.10221,-6.13506 -3.30439,-21.0965 -4.89372,-33.24764 l -2.8897,-22.09299 -9.51158,-4.51001 c -13.11011,-6.2163 -39.59995,-21.74355 -50.84491,-29.8032 C 197.57018,478.16856 178.97464,458.63759 166.87383,436 c -7.21519,-13.49782 -9.97359,-22.40346 -14.24783,-46 -6.37763,-35.20861 -14.36521,-58.84606 -24.79118,-73.36396 -4.82334,-6.71639 -14.74881,-13.96937 -19.11662,-13.96937 -1.55353,0 -6.35687,-0.92004 -10.674084,-2.04453 C 77.865584,295.3663 61.333332,283.02238 61.333332,273.21177 v -4.97782 l 16.328705,-0.97458 c 12.896631,-0.76973 15.795992,-1.28476 13.794226,-2.45031 -1.393963,-0.81165 -4.47421,-3.12847 -6.844993,-5.14848 -8.402387,-7.15922 -23.445768,-9.92914 -29.790305,-5.48525 -2.655013,1.85964 -2.98543,2.92755 -2.276846,7.35879 0.757305,4.73593 0.519645,5.30104 -2.752593,6.54514 -1.969805,0.74892 -4.291523,1.18746 -5.159374,0.97454 -0.867851,-0.21292 -5.511059,-5.02933 -10.318239,-10.70313 -6.393173,-7.54571 -8.98257,-11.74981 -9.642388,-15.65524 -1.193095,-7.06187 2.268716,-14.11136 9.348035,-19.03595 4.847633,-3.37217 6.79836,-3.80412 20.666666,-4.5762 l 15.313772,-0.85255 4.044489,-5.4487 c 2.224468,-2.99678 7.024468,-7.08468 10.666666,-9.08422 7.542526,-4.14078 14.518626,-4.57077 37.288847,-2.2984 24.097,2.40478 42.92205,1.91504 52,-1.35282 13.19091,-4.74843 14.00427,-4.81841 13.97071,-1.20203 -0.0443,4.77107 -4.46042,13.34541 -9.13592,17.73823 -5.00717,4.70443 -5.22324,6.08388 -0.95295,6.08388 1.76835,0 8.21835,2.17741 14.33334,4.83868 8.56997,3.72971 13.48645,4.99132 21.45148,5.50465 5.68333,0.36628 10.33333,1.10126 10.33333,1.63328 0,1.39283 -5.31294,6.79713 -10.62603,10.80875 l -4.57196,3.45202 11.93233,6.54798 c 10.23191,5.61485 12.97737,6.54588 19.26566,6.53329 4.03334,-0.008 8.98334,-0.52312 11,-1.14455 2.86652,-0.8833 3.66667,-0.69573 3.66667,0.85954 0,2.31303 -9.30622,11.07033 -14.07158,13.24158 -1.79397,0.81738 -3.26175,1.89353 -3.26175,2.39144 0,1.15233 6.18657,4 8.68999,4 2.48268,0 17.9254,-18.00679 26.16074,-30.5044 6.88661,-10.45085 8.07802,-15.9578 4.544,-21.00332 -1.06624,-1.52226 -7.06504,-5.64495 -13.33067,-9.16154 -15.26524,-8.5676 -26.88642,-19.54533 -28.17221,-26.61235 -2.27225,-12.48879 6.02744,-27.4933 21.09046,-38.12814 11.01945,-7.77999 25.22159,-15.17747 51.22946,-26.68394 33.23263,-14.70287 49.18511,-25.97749 60.65639,-42.869702 2.90241,-4.273978 5.84442,-7.42025 6.5378,-6.991714 0.69338,0.428535 1.2607,4.984177 1.2607,10.123649 0,11.014177 -2.12089,10.927747 22,0.896568 35.15048,-14.618065 60.81042,-30.546801 79.24278,-49.190971 7.84588,-7.936047 12.19235,-11.454772 12.84499,-10.398785 1.99924,3.234842 0.80388,24.38995 -1.85662,32.857982 C 486.51567,69.126771 486.12617,72 487.10146,72 c 0.81867,0 8.23664,-6.9 16.48437,-15.333333 8.24772,-8.433334 15.31498,-15.333334 15.70501,-15.333334 0.39003,0 0.70915,4.673941 0.70915,10.386535 0,12.333342 -2.59211,23.446218 -7.91817,33.946799 -2.13876,4.216666 -3.55294,7.666666 -3.14262,7.666666 2.70971,0 11.40619,-7.362212 22.15182,-18.753158 6.87301,-7.285763 12.96786,-13.246842 13.54411,-13.246842 0.57626,0 0.74577,6.15 0.37669,13.666667 -0.49213,10.022766 -1.55853,16.059188 -3.99959,22.63996 l -3.32855,8.97329 5.31207,-4.20723 c 6.27069,-4.966486 14.78023,-15.433058 18.54143,-22.80563 4.06943,-7.976734 5.59861,-4.764897 3.84147,8.068493 -1.77982,12.999107 -5.8478,28.076727 -9.51414,35.263337 -1.49447,2.92941 -2.38623,5.65718 -1.98169,6.06173 2.68012,2.68011 26.56188,-19.72938 32.76993,-30.749719 5.69749,-10.114007 7.29946,-8.5025 5.39257,5.424649 -1.95478,14.27692 -5.90852,28.1488 -10.76493,37.76929 -2.192,4.34234 -3.6119,7.89516 -3.15532,7.89516 0.45657,0 4.73767,-3.10932 9.51355,-6.9096 9.32205,-7.41778 17.58646,-17.03758 21.89856,-25.49001 4.06943,-7.97673 5.59861,-4.76489 3.84147,8.0685 -1.77982,12.9991 -5.84781,28.07672 -9.51414,35.26334 -1.49447,2.9294 -2.44849,5.59492 -2.12004,5.92337 0.32845,0.32845 5.13534,-3.00914 10.68199,-7.41685 9.90937,-7.87462 18.38472,-17.73138 22.86513,-26.59195 3.66532,-7.24861 5.11043,-3.52127 3.42039,8.82209 -2.16802,15.83434 -6.18522,28.93123 -12.75689,41.59003 -3.22163,6.20572 -5.63311,11.50753 -5.35884,11.7818 0.9794,0.9794 23.75467,-3.88462 30.33598,-6.47873 3.68754,-1.4535 9.29443,-4.42455 12.45975,-6.60235 7.53286,-5.18274 9.06895,-5.10991 7.88159,0.3737 -2.56701,11.85526 -9.16181,23.7397 -18.46215,33.27051 l -4.81779,4.93718 5.66984,-1.77325 c 9.3021,-2.90925 12.90408,-4.57148 19.01096,-8.77313 7.58447,-5.21826 9.1215,-5.15263 7.93247,0.33869 -2.32678,10.74578 -7.81704,21.43618 -15.05756,29.31942 -1.84522,2.00902 -3.07226,3.93545 -2.72675,4.28096 0.34551,0.34551 4.69352,-1.80648 9.66224,-4.7822 4.96872,-2.97573 9.37275,-5.0717 9.78673,-4.65771 1.45756,1.45755 -5.47341,17.31717 -11.80987,27.02365 -3.52549,5.40052 -9.60558,13.11839 -13.51131,17.15083 -4.28583,4.42488 -6.27846,7.32056 -5.02586,7.30359 4.25929,-0.0577 19.90344,-6.39208 25.79112,-10.44291 7.88099,-5.42227 9.4229,-5.39645 8.22459,0.1377 -3.23935,14.96034 -12.84038,29.76248 -25.94025,39.99271 -5.76842,4.50479 -4.25605,4.56983 8.92575,0.38383 5.97411,-1.89713 10.858,-2.79279 11.53533,-2.11546 3.2083,3.2083 -12.83324,24.79028 -24.99446,33.62705 -6.16386,4.47887 -5.18488,4.66064 6.08126,1.12907 13.41641,-4.20561 13.97101,-3.95685 9.53534,4.27677 -4.66076,8.65142 -18.49331,23.52723 -26.8838,28.91139 -6.71372,4.30819 -14.03626,7.33132 -24.86608,10.26603 l -6.66667,1.80657 7.33333,-0.79485 c 4.03334,-0.43717 12.2924,-2.22471 18.35348,-3.97232 6.06108,-1.7476 11.94853,-3.17746 13.08322,-3.17746 3.88698,0 -4.85503,13.47652 -16.07235,24.77682 -9.96798,10.04173 -14.66599,13.13464 -28.69768,18.89297 -3.10782,1.27538 0.64414,1.28492 18.66667,0.0474 3.8371,-0.26347 6.66666,0.29022 6.66666,1.30454 0,0.56197 -2.85,4.124 -6.33333,7.91562 -10.9966,11.96985 -30.73716,23.35512 -43,24.80005 -2.56667,0.30243 -8.28781,2.37882 -12.71366,4.61419 -28.44515,14.3669 -56.76761,13.81669 -87.58514,-1.70149 -14.80976,-7.45745 -22.75395,-12.56365 -44.49952,-28.60245 -15.37678,-11.34141 -18.10766,-12.88406 -21.83857,-12.33648 -3.4622,0.50815 -3.92866,0.93293 -2.48029,2.25869 31.84955,29.15337 51.00619,46.4004 55.78385,50.22309 6.0796,4.8644 13.81005,9.44575 59.33333,35.16309 51.38751,29.03021 83.06527,51.87518 98.05697,70.71551 10.91172,13.71294 10.88964,13.43902 2.1427,26.58269 -4.15273,6.24014 -8.18996,11.34571 -8.97161,11.34571 -0.78166,0 -8.01405,-3.06369 -16.07197,-6.80821 -8.05793,-3.74452 -14.95887,-6.50011 -15.33544,-6.12355 -0.37656,0.37656 1.74425,4.53056 4.71291,9.2311 5.61639,8.89292 12.13311,22.55888 12.13311,25.44387 0,2.22039 -16.25233,18.25679 -18.50263,18.25679 -0.97031,0 -6.81578,-2.4 -12.98993,-5.33333 -6.17415,-2.93333 -11.78026,-5.33333 -12.45803,-5.33333 -0.67777,0 1.74049,6.15 5.37391,13.66666 L 573.36285,678 l -4.67433,4.13516 c -2.57088,2.27434 -8.21518,6.61893 -12.54288,9.65464 l -7.86854,5.51947 -7.27353,-5.98797 c -4.00044,-3.29338 -7.69312,-5.98797 -8.20597,-5.98797 -0.51285,0 -0.57531,3.49045 -0.13881,7.75655 1.13736,11.11577 -0.35518,13.88399 -10.11551,18.76129 -12.67102,6.33178 -14.10107,5.96248 -27.0485,-6.98495 C 472.56035,681.93179 452.33252,644.67629 427.87979,580.33333 426.13795,575.75 423.9691,572 423.06013,572 c -0.90897,0 -2.94522,3.00458 -4.52499,6.67685 -2.11592,4.91861 -4.67125,7.95726 -9.70373,11.5391 -8.46177,6.02264 -13.43935,11.52792 -16.68213,18.45072 -1.37404,2.93333 -5.56973,8.31077 -9.32377,11.94987 -3.75404,3.6391 -6.82552,7.35929 -6.82552,8.26708 0,0.9078 -0.81134,2.13035 -1.80298,2.71679 -2.17265,1.28488 -9.08991,12.27976 -22.90025,36.39959 -19.54513,34.13571 -24.57103,43.61463 -23.6262,44.55945 0.9787,0.97871 -2.42273,8.77388 -3.82849,8.77388 -0.64225,0 -3.41946,1.99768 -6.17157,4.43929 -9.66977,8.5788 -17.42883,12.99106 -24.26981,13.80128 -9.57739,1.1343 -12.28996,4.54662 -13.30889,16.74219 -0.44499,5.32615 -1.31099,10.47903 -1.92444,11.45085 -1.62436,2.57329 -6.71173,-2.60901 -11.13301,-11.34074 -4.17491,-8.24516 -5.65045,-7.29647 -5.68061,3.65229 -0.0112,4.07651 -0.78219,8.45362 -1.71324,9.72691 -1.56657,2.14242 -1.94309,2.03712 -5.04817,-1.41182 z m 4.69673,-25.65529 c 0.4407,-0.71306 0.13444,-2.37089 -0.68058,-3.68405 -1.15107,-1.85463 -0.86353,-3.82595 1.28817,-8.83145 3.61017,-8.39834 3.5325,-8.88946 -1.40589,-8.88946 -5.34917,0 -12.68278,7.44734 -13.94169,14.1579 -0.75209,4.00896 0.11621,6.75122 5.58167,17.62813 L 256.60306,766 l 0.94236,-10.98261 c 0.5183,-6.04043 1.30294,-11.56603 1.74364,-12.2791 z m -20.06181,6.59504 c 0.64317,-11.00118 1.51482,-15.41904 4.06933,-20.62482 3.57044,-7.27615 2.97948,-8.65174 -3.73248,-8.68809 -4.15076,-0.0225 -11.56411,6.30933 -11.56411,9.87702 0,1.15641 -0.5358,2.10256 -1.19068,2.10256 -3.53099,0 -2.35195,5.5412 3.90462,18.35073 3.73837,7.65384 6.99905,13.70604 7.24594,13.44934 0.2469,-0.25671 0.81722,-6.76674 1.26738,-14.46674 z m 39.30156,-6.4387 c 0.92279,-1.70796 3.4313,-3.71665 5.57449,-4.46377 3.49032,-1.21673 3.89669,-1.9551 3.89669,-7.08025 0,-8.27929 -3.31512,-11.86685 -10.69836,-11.57754 -4.71757,0.18485 -6.45205,1.01883 -9.48352,4.55991 -6.51541,7.61071 -6.36836,11.4993 0.98776,26.11971 l 6.48077,12.88064 0.78219,-8.66666 c 0.43021,-4.76667 1.5372,-10.06409 2.45998,-11.77204 z m -58.0203,-19.57695 c -0.42167,-2.46796 0.37589,-6.49318 2.06936,-10.44387 3.59367,-8.38369 3.51521,-8.87381 -1.42044,-8.87381 -5.34918,0 -12.68279,7.44734 -13.9417,14.1579 -0.75224,4.00981 0.11588,6.7489 5.58699,17.62812 l 6.47762,12.88065 L 220.23748,738 c 0.52642,-5.86667 0.64839,-12.47371 0.27103,-14.68232 z M 201.89392,732 c 0.64316,-11.00119 1.51482,-15.41904 4.06932,-20.62483 3.57895,-7.29346 2.98384,-8.65201 -3.80581,-8.68809 -2.7127,-0.0144 -5.19707,1.41578 -8.4491,4.86393 -7.99602,8.47826 -8.0124,9.73301 -0.33227,25.45709 3.74087,7.65895 7.00359,13.71534 7.25048,13.45863 0.24689,-0.2567 0.81722,-6.76673 1.26738,-14.46673 z m 106.15552,-2.91147 c 10.57332,-7.06059 16.18979,-13.83446 16.56264,-19.97576 0.16018,-2.63823 1.43798,-6.62708 2.83957,-8.8641 4.71378,-7.52349 25.43935,-42.11021 34.90463,-58.24867 5.16125,-8.8 11.2425,-17.76225 13.5139,-19.91612 2.27139,-2.15387 4.12981,-4.68276 4.12981,-5.61976 0,-6.19715 -19.58276,-5.72992 -33.66667,0.80326 -5.3302,2.47255 -9,5.00092 -9,6.20069 0,1.1142 -6.58314,16.42444 -14.62921,34.02277 -13.40912,29.32836 -19.00445,39.57187 -21.72291,39.76872 -0.56034,0.0406 -2.76219,2.02377 -4.893,4.40711 L 292.214,706 h -19.77367 c -10.87552,0 -20.52141,0.48402 -21.43532,1.07559 -0.91391,0.59158 -2.95782,1.32521 -4.54203,1.6303 -2.73885,0.52746 -9.12968,5.56276 -9.12963,7.1932 2e-5,0.42217 2.75657,0.87395 6.12568,1.00396 4.93831,0.19056 7.51028,-0.64937 13.26925,-4.33334 6.49544,-4.15508 8.02653,-4.56497 16.87433,-4.51752 9.70867,0.0521 9.72055,0.0566 5.2443,2 -2.46752,1.0713 -6.54732,1.94781 -9.06621,1.94781 -2.51889,0 -6.5,1.0118 -8.84692,2.24845 l -4.26712,2.24846 5.065,1.2327 c 3.92435,0.9551 5.57583,0.78453 7.33333,-0.75741 3.1938,-2.80208 8.05833,-4.14176 14.26834,-3.92949 6.22919,0.21293 18.27793,-2.95638 22.99884,-6.04964 3.121,-2.04495 3.26756,-2.02282 2.8135,0.4248 -0.62432,3.36542 -9.26601,7.52369 -17.22498,8.28845 l -6.29577,0.60494 3.18753,4.6971 c 2.02702,2.98697 3.18754,6.6097 3.18754,9.95031 0,5.14616 0.0817,5.23526 4.01,4.37247 2.2055,-0.48441 7.62325,-3.29358 12.03945,-6.24261 z m -68.11069,-21.42186 c 0.12579,-2.05403 -8.91204,-0.94117 -10.98825,1.35303 -2.29993,2.54138 -5.13158,13.02145 -3.86149,14.29154 0.80482,0.80482 14.74155,-13.87786 14.84974,-15.64457 z m 280.51919,1.14886 c 3.96037,-1.75147 7.63654,-3.88973 8.16927,-4.75171 0.53273,-0.86198 0.5435,-6.3695 0.0239,-12.23894 l -0.94466,-10.67171 -8.97073,-10.90992 C 508.36837,657.63476 499.92421,645.84963 488.46808,628 c -10.20632,-15.90231 -51.13476,-85.47783 -51.13476,-86.92556 0,-0.59094 0.75,-1.07275 1.66667,-1.07069 0.91666,0.002 8.73322,12.15207 17.37012,27 30.72453,52.81938 50.33837,83.16805 64.41049,99.66292 7.02044,8.22912 25.83706,25.29718 27.88605,25.2947 2.55788,-0.003 19.33333,-13.29722 19.33333,-15.32118 0,-5.27949 -15.97326,-33.0582 -26.938,-46.84721 C 537.07059,624.77351 525.34565,609.56667 515.00655,596 491.93578,565.72722 482.3622,554.14197 465.09551,535.60134 c -12.78721,-13.73066 -15.26668,-17.57071 -9.27455,-14.36382 4.8431,2.59195 33.15874,34.63295 50.55406,57.20522 9.32706,12.10285 24.19165,31.3544 33.03241,42.78122 L 555.48155,642 l 15.5325,8 15.5325,8 7.39338,-7.28779 c 4.06636,-4.00828 7.39339,-7.91961 7.39339,-8.69184 0,-3.07358 -10.64211,-22.32773 -17.31921,-31.33465 -5.46292,-7.36907 -9.85671,-11.41189 -19.21494,-17.68008 -6.67289,-4.46952 -17.57282,-12.486 -24.22207,-17.81439 -28.375,-22.73836 -78.05015,-71.58488 -75.44677,-74.18826 0.97909,-0.97909 6.24926,3.64478 17.50057,15.35437 28.37794,29.53383 62.64077,59.24541 86.03575,74.60736 10.38291,6.81777 47.48853,26.36861 50.04511,26.36861 0.96305,0 13.28822,-18.06946 13.28822,-19.48136 0,-0.46566 -2.66364,-4.57942 -5.9192,-9.14168 -13.99155,-19.60741 -43.6229,-41.22674 -101.69049,-74.19442 -59.38681,-33.71666 -52.06381,-28.50062 -94.28539,-67.15779 l -26.1859,-23.97525 -11.62617,-2.88937 c -33.82364,-8.40593 -62.64985,-23.48008 -92.49808,-48.37023 -13.37638,-11.15443 -19.26517,-14.7899 -23.95689,-14.7899 -3.6507,0 -7.83787,-3.60834 -7.83787,-6.75437 0,-1.44017 -2.21172,-3.41175 -5.7473,-5.1233 -11.13282,-5.38931 -19.23637,-17.53212 -19.03604,-28.52469 l 0.11668,-6.40236 14.40686,-0.40451 c 7.92378,-0.22247 15.01586,-1.01349 15.76017,-1.7578 1.82657,-1.82657 -21.56013,-19.01842 -35.22005,-25.89069 -5.71249,-2.87395 -10.06816,-5.74019 -9.67927,-6.36944 0.3889,-0.62925 2.36276,-1.55733 4.38636,-2.0624 2.02359,-0.50507 5.77926,-2.21847 8.34593,-3.80755 l 4.66666,-2.88925 -6.74031,-0.82956 c -6.78945,-0.8356 -12.44787,-3.11932 -25.92635,-10.46379 -4.03334,-2.19778 -9.28334,-4.00894 -11.66667,-4.02479 -6.12061,-0.0407 -5.37967,-2.17963 2,-5.7735 7.81538,-3.80606 12.33333,-6.6354 12.33333,-7.72367 0,-0.45479 -2.98426,-1.18033 -6.6317,-1.61231 -3.64743,-0.43199 -11.47649,-2.91556 -17.39791,-5.51906 -7.05376,-3.10135 -12.81289,-4.73362 -16.70163,-4.73362 -7.99411,0 -7.57346,-3.79946 1.47617,-13.33334 2.4363,-2.56666 5.07842,-6.39006 5.87136,-8.49642 1.27829,-3.39562 1.17393,-3.74587 -0.92061,-3.08969 -17.74193,5.55816 -23.82151,5.88337 -63.2097,3.38123 -20.826313,-1.32299 -25.57173,-1.27838 -29.323546,0.27568 -4.627278,1.91668 -14.495759,10.07894 -14.495759,11.9895 0,0.59583 12.749999,1.29555 28.333335,1.55494 23.27944,0.38748 29.52248,0.90594 35,2.90661 7.74493,2.82885 10.55266,4.79215 9.03036,6.31446 -0.59546,0.59546 -4.57155,-0.20256 -8.83575,-1.77338 -8.47202,-3.12086 -10.13165,-2.45714 -10.1742,4.0689 -0.0315,4.83591 -4.09828,12.29416 -7.56488,13.87365 -5.99832,2.73301 -14.34423,-4.48994 -18.2485,-15.79311 l -1.80042,-5.21237 -10.53664,-0.30003 c -10.211498,-0.29077 -10.433779,-0.23199 -7.203306,1.90467 7.247621,4.79365 19.666206,19.05541 24.343866,27.95701 6.486,12.34289 9.07636,22.64476 9.15665,36.41613 l 0.066,11.3111 7.68061,6.95056 c 15.00701,13.58056 24.12125,36.91742 32.71279,83.76056 1.88302,10.26667 4.39589,21.66667 5.58414,25.33334 9.12102,28.14518 32.51606,55.55172 69.12266,80.97498 13.19893,9.16665 41.9377,25.60814 50,28.60507 3.3,1.22668 7.5,3.2492 9.33333,4.4945 3.03201,2.05949 30.824,14.59211 32.35907,14.59211 0.35777,0 0.33593,-13.2 -0.0485,-29.33333 -0.63441,-26.62237 -0.49622,-29.33333 1.49522,-29.33333 1.91704,0 2.19491,2.06332 2.19965,16.33333 0.007,20.89512 2.12256,48.78552 5.43627,71.66667 1.43374,9.9 2.92377,20.88426 3.31117,24.40948 0.38741,3.52521 1.28079,7.92556 1.9853,9.77855 0.7045,1.85299 0.96683,3.87727 0.58296,4.49839 -1.25261,2.02677 2.07455,2.92169 4.22551,1.13656 2.12914,-1.76703 8.05328,-4.19103 16.40008,-6.71046 2.53736,-0.76588 8.15416,-1.1364 12.48178,-0.82337 6.38784,0.46205 8.32968,1.17833 10.31994,3.80666 2.42865,3.20729 2.47045,3.21262 4.47582,0.57085 1.11335,-1.46666 2.04335,-3.33038 2.06667,-4.14159 0.087,-3.02521 9.32787,-13.49265 15.82987,-17.93098 3.7016,-2.52675 7.35134,-5.79409 8.11052,-7.26076 1.61161,-3.1135 4.49522,-10.26872 4.65696,-11.55556 0.0614,-0.48888 0.45992,-1.23708 0.88549,-1.66265 0.42557,-0.42557 -0.11329,-4.82557 -1.19747,-9.77777 -2.30236,-10.51653 -3.00511,-48.10528 -0.90963,-48.65453 0.78906,-0.20683 1.45673,4.00473 1.63561,10.31718 0.42021,14.82834 2.87134,38.73963 4.37717,42.70027 0.75668,1.99023 2.31113,3.29973 3.91697,3.29973 2.09835,0 3.12652,1.6243 4.85294,7.66666 7.53795,26.38241 31.74496,78.62691 47.44672,102.40134 C 488.32446,693.02928 506.0052,712 510.43007,712 c 1.55497,0 6.06751,-1.43301 10.02787,-3.18447 z M 241.99999,696.62332 c 4.19607,-2.94685 19.78069,-6.6616 22.05379,-5.25674 1.68921,1.04398 0.25036,3.46839 -1.821,3.06832 -5.38105,-1.03932 -23.08698,5.77097 -21.53452,8.28289 1.24823,2.01968 4.26697,1.49795 5.18572,-0.89625 0.73653,-1.91936 3.13217,-2.10156 20.14265,-1.53192 l 19.3067,0.64654 0.0428,-4.13475 c 0.0517,-4.99388 3.70791,-12.22611 18.77711,-37.14228 6.31761,-10.44585 15.48187,-25.82984 20.36501,-34.18663 l 8.87845,-15.19417 -1.36502,-7.38405 c -0.75076,-4.06122 -1.36501,-7.65114 -1.36501,-7.9776 0,-0.32646 -3.00391,-0.19508 -6.67535,0.29195 C 315.54492,596.32909 300,603.40854 300,606.13474 c 0,1.11419 -6.58315,16.42444 -14.62922,34.02277 -13.2808,29.0477 -19.00267,39.56133 -21.6435,39.76872 -0.51667,0.0406 -2.50052,1.6349 -4.40857,3.54294 -2.24141,2.24142 -4.3975,3.2264 -6.09229,2.78321 -1.61649,-0.42273 -2.48305,-0.076 -2.2581,0.90356 0.20076,0.87425 -0.0996,1.6944 -0.66744,1.82257 -0.56785,0.12817 -4.6221,2.1463 -9.00944,4.48473 -4.38735,2.33843 -9.77845,4.32433 -11.98023,4.4131 -4.82109,0.19438 -5.26459,1.88495 -1.06188,4.04776 3.26398,1.67972 4.47667,1.21224 13.75067,-5.30078 z m -15.03395,-1.87434 c 3.43271,-0.76929 8.21964,-2.24185 10.63762,-3.27236 2.41798,-1.03051 5.89633,-2.46526 7.72967,-3.18833 2.63992,-1.0412 1.80783,-1.20221 -4,-0.77402 -10.90197,0.80376 -18.83855,2.67237 -27.36364,6.44257 -4.19916,1.85707 -8.61019,3.42214 -9.80227,3.47793 -1.19208,0.0558 -0.26049,0.80579 2.07021,1.66667 2.33071,0.86087 4.65476,1.98928 5.16457,2.50757 0.5098,0.51828 2.81593,-0.49849 5.12473,-2.2595 2.3088,-1.76101 7.0064,-3.83125 10.43911,-4.60053 z m 72.76791,-1.08231 c 6.80905,-7.33502 38.04946,-76.33334 34.5615,-76.33334 -1.25727,0 -29.23155,47.94765 -40.84037,70 -6.0339,11.46211 -2.13389,15.39594 6.27887,6.33334 z m 5.28987,-96.55717 c 2.01777,-2.01777 9.89331,-4.98805 18.33508,-6.91513 l 6.69224,-1.5277 -2.69224,-19.16975 -2.69224,-19.16976 -9.33334,-4.0217 c -5.13333,-2.21194 -12.48333,-5.40236 -16.33333,-7.08982 -3.85,-1.68746 -7,-2.58138 -7,-1.98648 0,3.02805 8.23556,59.40663 8.81479,60.34384 0.94139,1.5232 2.38086,1.36469 4.20904,-0.4635 z M 554.37398,469.97249 c 9.25161,-2.95872 30.52358,-13.53744 29.40668,-14.62417 -0.24604,-0.2394 -6.41961,-1.14559 -13.71905,-2.01376 -36.97394,-4.39754 -81.51448,-24.51993 -134.06162,-60.56595 -9.16667,-6.28811 -18.46667,-12.28182 -20.66667,-13.31937 -3.62015,-1.70731 -26,-7.37741 -26,-6.58729 0,0.18159 3.02954,4.33273 6.7323,9.22476 3.70276,4.89203 9.34466,14.0738 12.53755,20.40394 6.52823,12.94272 7.6254,14.09828 28.06348,29.55712 25.89814,19.58867 47.60043,32.38934 64.04764,37.77723 16.93049,5.54622 36.60934,5.60031 53.65969,0.14749 z m 41.7965,-16.06774 c 9.29123,-4.32979 13.09648,-6.73273 19.70299,-12.44204 7.01105,-6.05891 8.6374,-8.89441 4.31461,-7.52241 -7.32872,2.32605 -59.62625,0.10146 -75.98465,-3.23217 -27.77992,-5.66119 -64.05564,-20.87682 -96.65099,-40.53967 -10.58387,-6.38463 -18.21535,-10.15956 -20,-9.89306 -2.1527,0.32146 2.5336,4.01743 18.44755,14.54914 25.85582,17.11115 37.54669,23.88315 59.33333,34.36916 28.05058,13.50087 49.73517,19.65044 74.33333,21.08032 7.51667,0.43694 13.66667,1.18403 13.66667,1.66021 0,0.47617 -0.72,1.58577 -1.6,2.46577 -2.14853,2.14853 -0.9487,2.01461 4.43716,-0.49525 z m 3.06764,-26.75877 c 16.32755,-4.14977 30.74867,-13.67112 40.932,-27.0248 3.58417,-4.70001 6.31132,-8.75083 6.06034,-9.00182 -0.25099,-0.25098 -5.20552,0.78843 -11.01008,2.3098 -13.7286,3.59826 -34.41388,4.7188 -48.65902,2.63588 -22.88854,-3.34675 -71.61035,-20.02571 -125.1539,-42.84399 -13.5259,-5.76424 -24.85977,-10.2132 -25.1864,-9.88657 -0.32662,0.32662 2.97182,4.40558 7.32988,9.06436 8.3202,8.89432 14.33108,18.0107 15.84039,24.02426 l 0.89774,3.5769 -10.47787,0.0297 c -10.20469,0.0289 -10.39968,0.0898 -7.47874,2.33842 6.24308,4.80599 34.92181,20.39561 49.32629,26.81353 23.77649,10.59361 51.17167,18.62627 70.34123,20.62504 8.78156,0.91564 28.79253,-0.51415 37.23814,-2.66066 z m -187.23813,-7.90003 c 0,-2.0007 -9.57326,-21.12654 -13.42057,-26.81215 -9.7491,-14.40737 -17.60824,-23.01344 -22.44947,-24.58304 -8.49258,-2.75342 -28.47111,-13.29634 -40.45384,-21.348 l -11.6572,-7.83292 -6.22575,4.75222 c -6.62144,5.05426 -16.80183,10.57938 -24.23474,13.15272 l -4.51849,1.56434 13.6046,11.26377 c 22.75992,18.84382 41.57921,30.15247 65.64555,39.4469 18.4609,7.1296 43.70991,13.13494 43.70991,10.39616 z m 208.57146,-32.09997 c 16.32755,-4.14977 30.74868,-13.67112 40.93201,-27.0248 3.58417,-4.70001 6.32321,-8.73894 6.08675,-8.97539 -0.52593,-0.52594 -19.98452,3.871 -36.25689,8.19275 -19.99627,5.31077 -28.4589,6.42014 -49.33334,6.4671 -30.20562,0.0679 -53.32185,-3.98793 -101.10099,-17.73877 -28.99841,-8.34575 -39.37577,-10.78615 -40.19938,-9.45353 -1.97967,3.20317 93.60959,40.82558 119.30037,46.95473 22.43119,5.35149 43.55858,5.90186 60.57147,1.57791 z m -165.9048,-12.2726 c 0,-2.94789 -11.25504,-17.83351 -19.75135,-26.12262 -13.09108,-12.77183 -18.13698,-15.83906 -35.32109,-21.4705 -8.21015,-2.69057 -23.28959,-8.54319 -33.50987,-13.00583 -11.61624,-5.07219 -18.77156,-7.54613 -19.08715,-6.59937 -1.15833,3.47499 -11.60162,18.68119 -15.90886,23.16448 l -4.6495,4.83955 11.11391,7.36385 c 26.8298,17.77688 53.9551,28.33531 81.11391,31.57331 12.10951,1.44375 36,1.61439 36,0.25713 z m 160,-15.36088 c 20.35266,-3.94122 37.42421,-12.55457 49.17605,-24.8115 7.44949,-7.76968 13.86649,-18.30885 10.31883,-16.94749 -13.15425,5.04776 -36.40718,8.91316 -53.61854,8.91316 -32.33576,0 -98.20393,-11.48969 -143.20967,-24.98072 l -12.66667,-3.797 9.43956,9.43057 c 10.0203,10.01075 17.71497,21.4176 15.73886,23.33184 -1.67132,1.61899 -20.63255,5.34085 -27.45554,5.38918 -3.81004,0.027 -5.05439,0.41579 -3.72288,1.1632 3.49935,1.96427 53.47531,15.8864 67.33333,18.7575 32.25642,6.68285 65.59878,8.01827 88.66667,3.55126 z M 302.54404,348.44696 c 7.39159,-3.5545 12.62491,-7.48006 20.79485,-15.59842 22.48828,-22.34629 33.72377,-50.58781 32.34765,-81.30901 -0.33357,-7.44674 -1.08687,-14.64991 -1.67399,-16.00704 -1.02324,-2.36518 -0.27145,-2.42048 18.12663,-1.33334 68.79667,4.06519 104.96533,-3.68057 126.74863,-27.14405 5.77258,-6.21783 14.00849,-19.93657 12.7339,-21.21115 -0.30666,-0.30666 -4.83029,0.34124 -10.05253,1.43977 -28.53128,6.00174 -71.51695,7.35888 -103.56919,3.26988 -15.20787,-1.94012 -49.10131,-0.80392 -60.44218,2.02617 -19.11187,4.76933 -40.22449,18.16464 -40.22449,25.52121 0,5.35084 6.40159,23.62822 10.58645,30.22573 2.2072,3.47969 6.36407,8.87969 9.23749,12 l 5.22441,5.67329 -4.06847,8.32801 c -12.11026,24.78924 -32.36962,38.3305 -59.83611,39.99419 l -11.5229,0.69795 1.10357,3.84793 c 0.60696,2.11635 1.0989,4.15781 1.09321,4.53657 -0.006,0.37875 1.26246,3.31795 2.81814,6.53155 2.9276,6.04761 7.29289,9.76887 13.24898,11.2943 2.26321,0.57963 4.36517,2.74102 6.11524,6.28816 1.46666,2.97272 3.39406,5.15466 4.28309,4.84877 0.88904,-0.30589 2.68904,0.0974 4,0.89617 3.62072,2.20613 11.97213,0.45166 22.92762,-4.81664 z m 173.53244,-17.97569 c 5.09126,-0.84081 9.25289,-1.89081 9.24805,-2.33334 -0.0378,-3.4637 -13.22683,-18.4909 -23.46912,-26.74009 C 452.07885,293.52376 431.62751,284 424.49524,284 c -7.19539,0 -32.38391,-4.2608 -47.65593,-8.0613 C 368.13426,273.77241 360.57974,272 360.05148,272 c -0.52826,0 -1.7284,3.45 -2.66698,7.66667 -0.93857,4.21666 -2.83405,10.53888 -4.21217,14.04936 -1.37812,3.51048 -2.50567,7.00222 -2.50567,7.75943 0,2.08525 25.2917,13.56365 43.33333,19.66641 13.75338,4.65223 25.31505,7.57208 39.33333,9.93347 7.23652,1.219 33.99382,0.84085 42.74316,-0.60407 z m 173.59417,-13.53876 c 11.32463,-6.37356 20.47904,-15.4635 25.85275,-25.67068 7.44808,-14.14738 7.34907,-14.4129 -3.37904,-9.06133 -5.11259,2.55034 -14.58658,5.74818 -21.05333,7.10632 -6.46674,1.35814 -14.75771,3.9345 -18.42438,5.72526 -17.18868,8.39474 -31.26295,10.99297 -58.66667,10.83037 -24.98269,-0.14824 -41.49461,-2.26959 -85.99999,-11.04872 -14.3,-2.82081 -26.56576,-4.80092 -27.25724,-4.40024 -3.77944,2.19003 39.87635,14.93011 73.25723,21.37868 17.96912,3.4713 45.37972,7.71444 64.66667,10.01034 2.56667,0.30554 13.06667,0.47496 23.33333,0.3765 L 640.66665,322 Z M 301.06149,292.13978 c 4.18284,-4.26414 9.67703,-11.65949 12.20931,-16.43412 l 4.60414,-8.68115 -5.4391,-6.17915 c -6.93784,-7.8818 -14.28036,-21.87243 -16.98894,-32.37115 -3.04393,-11.79861 -2.74972,-14.00119 2.55724,-19.1449 l 4.67082,-4.52713 -3.84416,-4.06776 c -3.96118,-4.19159 -6.83081,-8.8999 -6.83081,-11.20758 0,-0.72333 7.35,-5.05568 16.33333,-9.62745 23.32097,-11.86842 31.88966,-17.61214 40.82994,-27.36887 13.83802,-15.10176 20.95181,-32.01432 22.3759,-53.197187 l 0.80674,-12 -4.01531,5.333334 c -5.65364,7.509433 -14.29832,15.433283 -23.84141,21.853403 -8.08834,5.44144 -17,9.85264 -50.24069,24.86875 -30.86016,13.94073 -45.85851,24.73556 -51.79389,37.27785 -4.59352,9.70675 -4.9509,17.49525 -1.0314,22.47808 3.95899,5.03304 16.63901,14.50723 27.14492,20.28201 9.79364,5.38326 14.08541,10.65705 14.09355,17.31834 0.008,6.40304 -11.61975,24.31041 -26.62643,41.00677 l -5.96474,6.63635 3.28761,2.13922 c 1.80818,1.17658 8.64366,6.14798 15.18996,11.04756 l 11.90235,8.90834 6.50295,-3.29529 c 3.57662,-1.81242 9.92528,-6.78414 14.10812,-11.04827 z m 310.27183,6.55492 c 21.09698,-5.41355 37.80156,-15.70439 49.35069,-30.40245 5.74384,-7.30991 16.07561,-25.31039 15.09201,-26.29399 -0.25981,-0.25981 -6.19748,2.3343 -13.19484,5.76468 -6.99735,3.43038 -16.89067,7.97102 -21.98516,10.0903 l -9.2627,3.85325 -32,0.13846 c -36.27659,0.15697 -42.17383,-0.5449 -94.82106,-11.28526 C 486.82734,246.95186 471.85512,244 471.24065,244 c -0.61446,0 3.35502,2.95286 8.82106,6.56192 5.46605,3.60906 14.13828,10.48679 19.27161,15.28386 7.63506,7.13492 8.96942,8.96713 7.33333,10.0694 -2.57934,1.73777 -12.83346,3.90748 -32,6.77102 -10.27266,1.53477 -14.23318,2.56238 -12,3.11358 17.61625,4.34803 76.90194,14.5397 93.33333,16.04472 14.27727,1.30771 44.71413,-0.42488 55.33334,-3.1498 z M 111.70753,285.66667 c -0.40321,-8.6984 -1.55681,-15.62988 -3.48631,-20.94782 -5.31894,-14.65966 -16.533418,-28.707 -30.221222,-37.85535 l -6.666667,-4.45571 -14.901366,0.61576 c -17.035812,0.70397 -22.116651,2.71939 -26.297715,10.43152 -3.856343,7.11317 -2.203482,12.2632 7.344011,22.88267 4.452505,4.95242 8.641375,8.66701 9.3086,8.25464 0.667226,-0.41237 1.213138,-2.48089 1.213138,-4.59672 0,-9.78298 11.350499,-14.32509 25.471357,-10.19284 13.823656,4.04528 30.342654,18.61768 30.452334,26.86385 0.0815,6.12428 -1.62527,6.7151 -12.19801,4.22257 -10.329676,-2.43522 -21.852589,-3.21965 -23.444428,-1.59599 -0.521356,0.53178 1.152079,2.73324 3.718746,4.89214 8.704401,7.32151 25.586799,14.09019 35.821742,14.36205 l 4.48841,0.11923 z m 372.45869,-8.46075 c 9.07524,-1.53675 16.79185,-3.07816 17.14802,-3.42537 1.12001,-1.0918 -12.16125,-12.17017 -24.51966,-20.45272 -20.23845,-13.56371 -20.86326,-13.70117 -63.46126,-13.96143 -20.16666,-0.12321 -40.56666,-0.69924 -45.33333,-1.28007 l -8.66667,-1.05605 0.45492,15.15152 c 0.2502,8.33335 0.5649,15.26624 0.69934,15.40643 0.95656,0.99753 34.5939,8.66702 44.84574,10.22507 20.19535,3.06923 58.88087,2.77117 78.8329,-0.60738 z M 99.999997,276.16326 c 0,-4.2779 -2.80505,-4.8626 -19.999999,-4.16894 -17.280492,0.69711 -20.482342,2.17011 -5.333333,2.45358 4.766666,0.0892 11.666666,1.02126 15.333332,2.07125 9.016669,2.58202 10,2.54702 10,-0.35589 z M 632.9912,254.77169 c 17.28191,-4.288 29.1145,-13.48315 37.25725,-28.95273 7.37237,-14.00601 7.26446,-14.32166 -3.11128,-9.10132 -4.93847,2.48468 -12.96339,5.42383 -17.83316,6.53144 -4.86977,1.1076 -12.70536,3.81594 -17.41241,6.01852 -9.90574,4.63521 -24.48898,8.59101 -39.41764,10.69229 -12.99653,1.82933 -61.29409,1.87699 -87.14064,0.086 -24.44152,-1.69363 -30.22252,-1.7242 -28.6,-0.15123 2.59517,2.51592 70.91035,15.6707 93.26666,17.95944 2.93334,0.3003 15.83334,0.34322 28.66667,0.0954 17.85588,-0.34484 25.9135,-1.09082 34.32455,-3.17778 z M 119.46706,240.31292 C 122.06126,238.58072 124,233.63712 124,228.75432 124,224.88889 123.50142,224 121.33333,224 c -1.53124,0 -2.66667,0.88889 -2.66667,2.08766 0,1.14821 -0.64775,3.29798 -1.43944,4.77728 -1.3466,2.51615 -1.59687,2.54716 -3.88009,0.48088 -1.34235,-1.21481 -2.80603,-3.66459 -3.25262,-5.44395 -0.78246,-3.11758 -4.76118,-4.6711 -4.76118,-1.85905 0,2.73297 4.18917,11.32001 6.96272,14.27232 2.96264,3.15358 4.71069,3.64057 7.17101,1.99778 z m 476.53292,-4.91594 c 33.19306,-5.03304 54.15662,-17.14393 64.85676,-37.46849 7.43702,-14.12638 7.33411,-14.43686 -3.05291,-9.21085 C 640.01354,197.66845 636.88593,198 570.24011,198 c -58.37922,0 -59.79395,0.0616 -61.23512,2.66667 -0.81139,1.46666 -5.01737,6.36752 -9.34661,10.89079 -7.7506,8.09797 -19.78393,15.57394 -30.67067,19.05484 -8.04535,2.57239 -4.49691,4.04463 10.09097,4.1867 7.47338,0.0728 18.68797,0.57989 24.92131,1.12689 21.26054,1.86573 78.37265,1.53739 91.99999,-0.52891 z M 327.99999,191.52952 c 11.63157,-3.87518 26.82174,-6.19619 40.5518,-6.19619 h 9.69218 l 8.13288,-8.46955 c 7.21063,-7.50912 24.2898,-31.76184 24.2898,-34.49194 0,-1.54295 -21.41622,-1.2567 -32.29823,0.4317 -14.77655,2.29266 -18.21779,4.07325 -29.7049,15.37007 -9.32449,9.17003 -13.23316,11.82392 -31,21.0483 -11.18161,5.80538 -20.3302,11.3345 -20.3302,12.28694 0,0.95243 1.8372,3.82414 4.08265,6.38158 l 4.08265,4.64988 6.25069,-3.83959 c 3.43787,-2.11178 10.75068,-5.33881 16.25068,-7.1712 z m 196.94086,-1.28501 c 5.76694,-2.43219 14.36445,-7.04479 19.10557,-10.25023 9.28944,-6.28052 23.95356,-20.71159 23.95356,-23.57287 0,-0.96511 0.53314,-1.75474 1.18476,-1.75474 0.65161,0 3.59188,-4.65 6.53392,-10.33334 5.49157,-10.60842 10.12576,-24.39972 11.76081,-35 l 0.92548,-6 L 583.09304,110 c -9.27579,11.64152 -25.27077,23.15369 -48.0342,34.57199 -20.03158,10.04798 -30.00694,13.93418 -75.72552,29.50121 l -40,13.61987 7.85834,0.99771 c 14.49345,1.84012 58.01496,-1.70914 80.49577,-6.56457 4.59476,-0.99238 8.66385,-1.30316 9.04242,-0.69063 0.37856,0.61254 -0.23079,3.31339 -1.35412,6.00189 -2.05004,4.90646 -2.52599,7.2292 -1.48132,7.2292 0.3086,0 5.2795,-1.98998 11.04644,-4.42216 z m 57.1769,-3.09911 c 10.67909,-11.56657 20.1223,-29.45852 24.48767,-46.39652 3.98825,-15.47473 3.64261,-16.81026 -2.38153,-9.20194 -5.35269,6.7603 -12.46606,12.95953 -23.41823,20.40873 -3.5902,2.4419 -12.2902,10.22286 -19.33333,17.29101 -8.21496,8.24416 -16.13525,14.74559 -22.09343,18.13559 l -9.28774,5.2844 11.95441,0.74804 c 6.57493,0.41142 16.71847,0.86142 22.54121,1 l 10.5868,0.25196 z m 35.14029,3.62698 c 4.83246,-6.78657 11.85644,-23.06509 14.68071,-34.0235 3.98826,-15.47473 3.64261,-16.81026 -2.38153,-9.20194 -5.62003,7.09795 -12.65044,13.13 -25.00627,21.45523 -4.46364,3.00756 -9.21606,7.14762 -10.56092,9.20015 -1.34487,2.05253 -5.12491,6.59668 -8.40009,10.09811 l -5.95487,6.36624 h 17.425 17.42499 z m -202.97408,-5.27114 c 3.51048,-1.37431 20.48269,-7.15285 37.71603,-12.84119 38.31706,-12.64762 63.06967,-22.1597 80.73243,-31.02436 l 13.3991,-6.7248 4.86493,-10.45544 c 4.64829,-9.98987 10.33687,-28.788578 10.33687,-34.15963 0,-1.795997 -1.53165,-0.597597 -5.25261,4.109766 -2.88893,3.654775 -8.69415,9.258654 -12.90048,12.453064 -4.20632,3.19441 -8.89265,7.08053 -10.41406,8.63581 -1.5214,1.55529 -6.62083,6.82878 -11.33206,11.71887 -17.72571,18.39865 -38.94784,29.35128 -90.76746,46.84459 -13.56666,4.57985 -26.46666,9.09461 -28.66666,10.03279 l -4,1.7058 4.66667,0.92622 c 2.56666,0.50943 4.79445,1.00521 4.95063,1.10175 0.15619,0.0965 3.15619,-0.94892 6.66667,-2.32324 z m -19.33333,-2.985 c 3.87715,-1.54941 19.94936,-7.18348 35.71602,-12.52016 33.05172,-11.18731 48.76362,-17.71924 63.51274,-26.40423 30.26209,-17.81978 44.35592,-38.14704 47.789,-68.925183 0.7643,-6.852047 0.67971,-7.15832 -1.28886,-4.666667 -5.10781,6.465045 -16.62753,17.549025 -23.62811,22.734366 -11.06004,8.192184 -44.56965,24.466174 -73.7181,35.801294 l -25.33333,9.85151 -4.36597,7.13975 c -10.27955,16.81033 -15.64599,24.38741 -22.56608,31.86193 -8.07532,8.72231 -7.38715,9.63109 3.88269,5.12739 z m -15.63353,-43.8467 c 11.564,-2.04575 16.95417,-3.92468 31.96114,-11.14116 38.80539,-18.66057 58.83329,-34.596439 68.82693,-54.764441 5.17567,-10.444938 7.88,-21.786301 7.8125,-32.763939 l -0.0287,-4.666667 -4.27783,4.802162 c -17.79598,19.977217 -51.5482,40.966102 -90.94449,56.554 -8.8,3.481885 -16.194,6.495165 -16.43112,6.696165 -0.23711,0.201 -1.31944,4.77145 -2.40519,10.15656 -1.08574,5.38511 -4.02368,14.16536 -6.52876,19.51167 -2.50507,5.3463 -3.95611,9.35062 -3.22452,8.89847 0.73159,-0.45214 7.5896,-1.92941 15.24003,-3.28282 z m 42.78268,-5.82262 C 453.75724,122.03648 497.26743,101.65655 502.03529,95.405568 509.55506,85.546641 517.22489,62.648979 517.2444,50 l 0.004,-2.666667 L 515.2582,50 c -4.81439,6.450418 -19.24184,19.989198 -26.38804,24.762646 -4.28807,2.864302 -9.0359,6.864467 -10.55074,8.889255 -12.53101,16.749419 -33.18383,31.859159 -63.9861,46.812659 -4.95,2.40306 -9,4.63161 -9,4.95232 0,1.55733 8.49166,0.25573 16.76646,-2.56996 z"
       id="path1" />
  </g>
</svg>
