<?xml version="1.0" encoding="UTF-8" standalone="no"?>
<!-- Created with Inkscape (http://www.inkscape.org/) -->

<svg
   version="1.1"
   id="svg1"
   width="550"
   height="500"
   viewBox="0 0 880 880"
   sodipodi:docname="summer-tree-publicdomainvectors.org.svg"
   inkscape:version="1.3.2 (091e20e, 2023-11-25, custom)"
   xmlns:inkscape="http://www.inkscape.org/namespaces/inkscape"
   xmlns:sodipodi="http://sodipodi.sourceforge.net/DTD/sodipodi-0.dtd"
   xmlns="http://www.w3.org/2000/svg"
   xmlns:svg="http://www.w3.org/2000/svg">
  <defs
     id="defs1">
    <clipPath
       clipPathUnits="userSpaceOnUse"
       id="clipPath4">
      <path
         d="M 0,660 H 660 V 0 H 0 Z"
         transform="translate(-128.4829,-453.80471)"
         id="path4" />
    </clipPath>
    <clipPath
       clipPathUnits="userSpaceOnUse"
       id="clipPath6">
      <path
         d="M 0,660 H 660 V 0 H 0 Z"
         transform="translate(-1.2124,-341.40141)"
         id="path6" />
    </clipPath>
    <clipPath
       clipPathUnits="userSpaceOnUse"
       id="clipPath8">
      <path
         d="M 0,660 H 660 V 0 H 0 Z"
         transform="translate(-1.2124,-250.04691)"
         id="path8" />
    </clipPath>
    <clipPath
       clipPathUnits="userSpaceOnUse"
       id="clipPath10">
      <path
         d="M 0,660 H 660 V 0 H 0 Z"
         transform="translate(-659.93362,-270.2764)"
         id="path10" />
    </clipPath>
    <clipPath
       clipPathUnits="userSpaceOnUse"
       id="clipPath12">
      <path
         d="M 0,660 H 660 V 0 H 0 Z"
         transform="translate(-1.2124,-201.90141)"
         id="path12" />
    </clipPath>
    <clipPath
       clipPathUnits="userSpaceOnUse"
       id="clipPath14">
      <path
         d="M 0,660 H 660 V 0 H 0 Z"
         transform="translate(-416.68361,-0.27729751)"
         id="path14" />
    </clipPath>
    <clipPath
       clipPathUnits="userSpaceOnUse"
       id="clipPath16">
      <path
         d="M 0,660 H 660 V 0 H 0 Z"
         transform="translate(-659.93362,-278.7637)"
         id="path16" />
    </clipPath>
    <clipPath
       clipPathUnits="userSpaceOnUse"
       id="clipPath18">
      <path
         d="M 0,660 H 660 V 0 H 0 Z"
         transform="translate(-659.93362,-244.68261)"
         id="path18" />
    </clipPath>
    <clipPath
       clipPathUnits="userSpaceOnUse"
       id="clipPath20">
      <path
         d="M 0,660 H 660 V 0 H 0 Z"
         transform="translate(-549.58591,-0.27729751)"
         id="path20" />
    </clipPath>
    <clipPath
       clipPathUnits="userSpaceOnUse"
       id="clipPath22">
      <path
         d="M 0,660 H 660 V 0 H 0 Z"
         transform="translate(-471.83691,-384.50931)"
         id="path22" />
    </clipPath>
    <clipPath
       clipPathUnits="userSpaceOnUse"
       id="clipPath24">
      <path
         d="M 0,660 H 660 V 0 H 0 Z"
         transform="translate(-531.55181,-428.19481)"
         id="path24" />
    </clipPath>
    <clipPath
       clipPathUnits="userSpaceOnUse"
       id="clipPath26">
      <path
         d="M 0,660 H 660 V 0 H 0 Z"
         transform="translate(-269.8882,-484.45851)"
         id="path26" />
    </clipPath>
    <clipPath
       clipPathUnits="userSpaceOnUse"
       id="clipPath28">
      <path
         d="M 0,660 H 660 V 0 H 0 Z"
         transform="translate(-323.19731,-460.76421)"
         id="path28" />
    </clipPath>
    <clipPath
       clipPathUnits="userSpaceOnUse"
       id="clipPath30">
      <path
         d="M 0,660 H 660 V 0 H 0 Z"
         transform="translate(-226.73241,-433.34671)"
         id="path30" />
    </clipPath>
    <clipPath
       clipPathUnits="userSpaceOnUse"
       id="clipPath32">
      <path
         d="M 0,660 H 660 V 0 H 0 Z"
         transform="translate(-397.30471,-193.4707)"
         id="path32" />
    </clipPath>
  </defs>
  <sodipodi:namedview
     id="namedview1"
     pagecolor="#ffffff"
     bordercolor="#000000"
     borderopacity="0.25"
     inkscape:showpageshadow="2"
     inkscape:pageopacity="0.0"
     inkscape:pagecheckerboard="0"
     inkscape:deskcolor="#d1d1d1"
     inkscape:zoom="0.67272727"
     inkscape:cx="439.25676"
     inkscape:cy="440"
     inkscape:window-width="1440"
     inkscape:window-height="830"
     inkscape:window-x="-6"
     inkscape:window-y="-6"
     inkscape:window-maximized="1"
     inkscape:current-layer="g1">
    <inkscape:page
       x="0"
       y="0"
       inkscape:label="1"
       id="page1"
       width="880"
       height="880"
       margin="0.36973068 0.088 1.3333334 1.61652"
       bleed="0" />
  </sodipodi:namedview>
  <g
     id="g1"
     inkscape:groupmode="layer"
     inkscape:label="1">
    <g
       id="group-MC0">
      <path
         id="path2"
         d="M 1.212,0.277 H 659.934 V 659 H 1.212 Z"
         style="fill:#f8f7d2;fill-opacity:1;fill-rule:nonzero;stroke:none"
         transform="matrix(1.3333333,0,0,-1.3333333,0,880)" />
      <path
         id="path3"
         d="m 0,0 c 44.003,0 79.889,35.888 79.889,79.89 0,44.002 -35.886,79.89 -79.889,79.89 -44.002,0 -79.89,-35.888 -79.89,-79.89 C -79.89,35.888 -44.002,0 0,0"
         style="fill:#ffffff;fill-opacity:1;fill-rule:evenodd;stroke:none"
         transform="matrix(1.3333333,0,0,-1.3333333,171.31053,274.92707)"
         clip-path="url(#clipPath4)" />
      <path
         id="path5"
         d="m 0,0 57.698,57.699 c 15.976,15.975 40.325,18.687 59.143,8.133 14.937,-8.377 32.955,-5.891 45.063,6.218 l 28.944,28.943 c 19.241,19.241 50.627,19.241 69.868,0 l 22.925,-22.925 c 19.962,-19.962 52.524,-19.963 72.486,-0.001 l 12.798,12.797 c 19.24,19.241 50.626,19.241 69.867,0 l 21.292,-21.292 c 19.962,-19.962 52.527,-19.963 72.489,-0.001 l 10.508,10.51 c 19.242,19.241 50.626,19.241 69.868,0 l 45.772,-45.772 v -155.07 L 0,-176.914 Z"
         style="fill:#d5d4aa;fill-opacity:1;fill-rule:evenodd;stroke:none"
         transform="matrix(1.3333333,0,0,-1.3333333,1.6165333,424.79813)"
         clip-path="url(#clipPath6)" />
      <path
         id="path7"
         d="m 0,0 80.963,80.963 c 16.596,16.596 43.668,16.596 60.263,0 l 25.005,-25.007 c 19.482,-19.481 51.263,-19.481 70.745,0 l 50.492,50.494 c 15.597,15.594 40.441,16.534 57.151,2.818 20.213,-16.59 49.446,-15.155 67.936,3.333 l 34.036,34.039 c 16.597,16.596 43.668,16.596 60.265,0 l 50.057,-50.057 c 19.721,-19.724 51.892,-19.724 71.614,0 l 3.482,3.481 c 6.254,6.256 16.459,6.256 22.713,0 l 3.999,-3.999 V -154.879 L 0,-171.118 Z"
         style="fill:#bbba8b;fill-opacity:1;fill-rule:evenodd;stroke:none"
         transform="matrix(1.3333333,0,0,-1.3333333,1.6165333,546.60413)"
         clip-path="url(#clipPath8)" />
      <path
         id="path9"
         d="m 0,0 v -156.95 l -609.055,-9.796 v 111.635 l 80.963,52.819 c 16.595,10.828 43.667,10.828 60.261,0 l 25.008,-16.313 c 19.482,-12.711 51.261,-12.711 70.742,0 l 50.493,32.941 c 15.595,10.174 40.441,10.786 57.152,1.838 20.214,-10.823 49.447,-9.888 67.937,2.175 l 34.036,22.206 c 16.597,10.826 43.668,10.826 60.263,0 L -52.144,7.897 C -38.082,-1.276 -17.694,-3.906 0,0"
         style="fill:#a3a174;fill-opacity:1;fill-rule:evenodd;stroke:none"
         transform="matrix(1.3333333,0,0,-1.3333333,879.91147,519.63147)"
         clip-path="url(#clipPath10)" />
      <path
         id="path11"
         d="m 0,0 v 26.752 c 2.057,1.057 4.39,1.653 6.861,1.653 5.983,0 11.151,-3.495 13.569,-8.555 0.989,0.252 2.026,0.386 3.095,0.386 3.469,0 6.603,-1.421 8.856,-3.714 0.616,11.179 9.874,20.053 21.206,20.053 7.616,0 14.296,-4.012 18.044,-10.035 1.722,0.574 3.565,0.887 5.482,0.887 7.782,0 14.367,-5.136 16.549,-12.204 1.906,1.11 4.122,1.746 6.486,1.746 4.288,0 8.088,-2.091 10.434,-5.31 1.981,9.018 10.015,15.768 19.626,15.768 11.101,0 20.097,-8.996 20.097,-20.097 0,-0.253 -0.007,-0.506 -0.015,-0.759 2.18,1.212 4.692,1.904 7.366,1.904 5.282,0 9.932,-2.696 12.655,-6.784 0.689,6.386 6.097,11.358 12.666,11.358 2.961,0 5.684,-1.009 7.85,-2.702 2.965,5.13 8.509,8.584 14.86,8.584 9.123,0 16.581,-7.122 17.121,-16.111 2.399,1.709 5.335,2.713 8.504,2.713 6.117,0 11.36,-3.742 13.564,-9.06 1.81,0.783 3.806,1.218 5.903,1.218 8.209,0 14.867,-6.656 14.867,-14.867 0,-8.211 -6.658,-14.867 -14.867,-14.867 -6.26,0 -11.617,3.872 -13.808,9.352 -1.742,-0.73 -3.655,-1.132 -5.659,-1.132 -3.637,0 -6.964,1.325 -9.529,3.516 -2.758,-3.374 -6.95,-5.527 -11.645,-5.527 -7.984,0 -14.512,6.223 -15.001,14.083 -1.156,0.904 -2.192,1.95 -3.081,3.114 -2.312,-2.345 -5.524,-3.8 -9.079,-3.8 -4.14,0 -7.815,1.975 -10.143,5.032 -0.359,-8.073 -7.015,-14.508 -15.178,-14.508 -7.783,0 -14.199,5.854 -15.088,13.399 -3.408,-2.663 -7.697,-4.25 -12.36,-4.25 -8.079,0 -15.044,4.77 -18.235,11.647 -1.996,-4.548 -6.54,-7.726 -11.825,-7.726 -4.744,0 -8.89,2.561 -11.133,6.373 -3.102,-2.937 -7.292,-4.739 -11.902,-4.739 -4.619,0 -8.818,1.81 -11.922,4.756 -3.336,-2.18 -7.322,-3.448 -11.604,-3.448 -7.689,0 -14.424,4.087 -18.151,10.205 -1.518,-5.145 -6.275,-8.899 -11.911,-8.899 -3.919,0 -7.414,1.819 -9.691,4.654 C 11.751,-1.034 9.379,-1.653 6.861,-1.653 4.39,-1.653 2.057,-1.058 0,0"
         style="fill:#769a2a;fill-opacity:1;fill-rule:evenodd;stroke:none"
         transform="matrix(1.3333333,0,0,-1.3333333,1.6165333,610.79813)"
         clip-path="url(#clipPath12)" />
      <path
         id="path13"
         d="M 0,0 H -415.471 V 216.959 C -179.681,213.453 1.457,129.82 1.457,17.446 1.457,11.601 0.964,5.782 0,0"
         style="fill:#87b027;fill-opacity:1;fill-rule:evenodd;stroke:none"
         transform="matrix(1.3333333,0,0,-1.3333333,555.57813,879.63027)"
         clip-path="url(#clipPath14)" />
      <path
         id="path15"
         d="M 0,0 V -278.486 H -646.871 C -564.199,-134.586 -306.208,-18.295 0,0"
         style="fill:#adda1a;fill-opacity:1;fill-rule:evenodd;stroke:none"
         transform="matrix(1.3333333,0,0,-1.3333333,879.91147,508.31507)"
         clip-path="url(#clipPath16)" />
      <path
         id="path17"
         d="M 0,0 V -244.405 H -646.871 C -564.199,-118.114 -306.208,-16.057 0,0"
         style="fill:#9ac421;fill-opacity:1;fill-rule:evenodd;stroke:none"
         transform="matrix(1.3333333,0,0,-1.3333333,879.91147,553.75653)"
         clip-path="url(#clipPath18)" />
      <path
         id="path19"
         d="m 0,0 h -98.926 c -8.095,11.366 -7.519,13.885 -23.836,20.182 -6.024,2.325 -10.415,4.033 -14.932,8.781 -8.331,10.815 -13.352,14.174 -6.857,28.019 4.529,8.832 17.893,20.519 19.518,26.464 1.762,6.448 -9.424,8.948 -14.244,10.549 -13.159,4.327 -36.36,10.318 -46.49,19.371 l -1.319,1.181 c -8.494,10.774 2.569,21.868 14.843,22.5 l 3.265,-0.015 c 27.742,-0.632 37.297,16.437 66.034,-0.052 14.487,-8.31 15.727,-0.231 30.241,6.05 14.049,5.049 25.917,3.04 40.387,5.721 8.919,1.653 23.163,6.279 27.041,-6.577 C -0.562,126.555 -23.81,121.137 -33.604,110.373 -46.118,96.618 -44.857,83.495 -62.611,76.167 -69.586,73.705 -75.541,71.989 -81.438,67.281 -95.307,51.701 -75.09,45.269 -64.768,36.345 -49.126,22.817 -47.68,12.979 -24.367,7.365 -16.066,5.367 -6.72,3.986 0,0"
         style="fill:#6d8e2a;fill-opacity:1;fill-rule:evenodd;stroke:none"
         transform="matrix(1.3333333,0,0,-1.3333333,732.7812,879.63027)"
         clip-path="url(#clipPath20)" />
      <path
         id="path21"
         d="m 0,0 c 29.767,6.527 19.521,31.937 43.969,53.802 1.672,1.495 15.643,11.668 15.703,11.812 0.43,1.03 -6.75,-0.212 0.962,1.53 9.079,2.049 21.747,-0.903 10.912,-11.701 C 50.546,34.508 50.557,37.024 44.958,7.786 40.82,-13.834 30.767,-21.741 15.774,-36.509 l -4.059,-3.998 c -32.283,-32.725 -12.233,-41.177 -26.606,-60.488 -12.274,-16.494 -33.974,-34.385 -8.879,-53.98 11.309,-8.832 19.971,-10.108 25.29,-25.257 7.109,-18.196 20.633,-22.307 36.773,-31.256 7.394,-4.101 51.779,-27.934 29.114,-36.004 -17.556,-5.084 -27.129,5.7 -42.412,-4.192 -9.11,-5.899 -9.585,-3.119 -16.16,-13.145 -5.586,-8.513 -9.933,-9.083 -19.205,-6.114 -24.172,8.472 -23.117,15.441 -51.837,10.747 -11.515,-1.882 -42.186,-8.138 -51.409,-1.385 -16.544,12.118 24.475,31.382 31.934,37.779 3.982,3.414 5.531,6.073 7.381,10.841 2.915,8.915 3.145,32.251 -1.276,40.062 -7.262,12.829 -23.687,18.718 -21.2,39.496 2.344,14.78 9.126,21.674 14.967,34.639 8.957,18.113 29.825,28.101 33.328,43.208 4.127,17.792 -20.089,19.224 -32.477,20.678 -22.417,2.63 -44.473,2.991 -66.566,5.121 -13.181,1.271 -29.939,3.147 -32.845,18.388 -2.718,14.256 1.598,21.418 -4.739,37.74 -1.84,4.735 -4.102,12.243 3.233,13.843 11.475,2.502 15.097,-17.314 16.533,-24.786 4.016,-20.906 8.697,-19.311 29.118,-17.685 15.157,1.172 27.476,1.345 42.45,1.685 18.936,0.427 48.071,1.644 47.282,27.756 -0.545,17.933 -18.796,27.077 -18.516,36.751 0.175,6.118 7.267,4.694 10.879,3.266 8.241,-3.258 23.636,-12.623 27.51,-20.459 5.761,-11.651 7.075,-42.268 18.628,-46.567 l 3.72,-0.612 C -2.854,-0.397 -1.401,-0.196 0,0"
         style="fill:#603616;fill-opacity:1;fill-rule:evenodd;stroke:none"
         transform="matrix(1.3333333,0,0,-1.3333333,629.11587,367.32093)"
         clip-path="url(#clipPath22)" />
      <path
         id="path23"
         d="M 0,0 C -9.483,-9.79 -10.498,-13.66 -14.757,-35.9 -18.895,-57.52 -28.948,-65.426 -43.94,-80.195 L -48,-84.193 c -32.283,-32.725 -12.233,-41.177 -26.605,-60.487 -12.275,-16.494 -33.975,-34.386 -8.879,-53.981 11.308,-8.832 19.97,-10.108 25.289,-25.256 7.109,-18.197 20.633,-22.307 36.773,-31.256 7.395,-4.102 51.779,-27.935 29.114,-36.004 -17.556,-5.084 -27.129,5.699 -42.412,-4.193 -9.11,-5.899 -9.585,-3.119 -16.16,-13.144 -3.887,-5.922 -7.171,-8.001 -11.936,-7.716 2.38,9.442 6.665,18.903 9.96,26.979 4.101,9.493 9.445,12.952 2.07,21.597 -12.991,15.227 -12.749,19.282 -19.909,36.981 -1.291,3.011 -2.562,6.064 -4.459,8.76 -6.352,9.015 -20.094,5.697 -31.917,18.334 l -3.485,4.306 c -10.27,14.817 -3.255,32.283 7.348,44.642 l 2.165,2.539 c 17.567,20.598 17.848,22.098 20.469,47.832 1.883,18.492 18.143,29.77 32.213,40.04 22.438,16.379 21.83,25.467 31.541,49.749 C -11.921,-3.047 -5.869,0.942 0,0"
         style="fill:#3d2316;fill-opacity:1;fill-rule:evenodd;stroke:none"
         transform="matrix(1.3333333,0,0,-1.3333333,708.73573,309.0736)"
         clip-path="url(#clipPath24)" />
      <path
         id="path25"
         d="m 0,0 c -20.962,36.303 -7.701,47.838 31.513,33.113 -18.975,34.392 -14.01,62.996 34.444,36.891 5.862,68.861 40.555,68.843 59.878,8.31 21.022,46.452 41.984,22.649 45.955,-11.65 22.292,33.598 43.244,31.271 53.261,-4.726 44.392,46.604 91.402,32.067 79.506,-29.691 73.604,-4.036 59.347,-95.393 -14.497,-71.681 17.29,-66.217 -31.075,-91.591 -73.888,-23.17 -14.11,-25.447 -35.644,-36.042 -45.851,5.807 -15.541,-46.202 -38.644,-59.771 -53.907,-5.254 C 108.011,-96.307 85.61,-98.443 65.219,-72.295 83.702,-140.116 36.789,-146.99 3.061,-98.228 -61.099,-155.923 -108.22,-94.562 -39.784,-51.69 -75.309,-7.256 -46.821,30.737 0,0"
         style="fill:#769a2a;fill-opacity:1;fill-rule:evenodd;stroke:none"
         transform="matrix(1.3333333,0,0,-1.3333333,359.85093,234.05533)"
         clip-path="url(#clipPath26)" />
      <path
         id="path27"
         d="m 0,0 c -13.559,21.255 -4.982,28.008 20.384,19.388 -12.275,20.135 -9.061,36.883 22.282,21.599 3.791,40.318 26.233,40.307 38.735,4.866 13.598,27.197 27.158,13.26 29.727,-6.821 14.421,19.671 27.974,18.308 34.453,-2.768 28.716,27.287 59.127,18.776 51.431,-17.384 47.612,-2.362 38.39,-55.851 -9.377,-41.968 11.182,-38.77 -20.103,-53.625 -47.797,-13.566 -9.129,-14.899 -23.058,-21.102 -29.661,3.4 C 100.124,-60.305 85.18,-68.25 75.305,-36.33 69.872,-56.387 55.377,-57.637 42.188,-42.327 54.145,-82.037 23.8,-86.062 1.98,-57.512 -39.524,-91.292 -70.004,-55.365 -25.735,-30.264 -48.714,-4.248 -30.288,17.996 0,0"
         style="fill:#587227;fill-opacity:1;fill-rule:evenodd;stroke:none"
         transform="matrix(1.3333333,0,0,-1.3333333,430.92973,265.64773)"
         clip-path="url(#clipPath28)" />
      <path
         id="path29"
         d="m 0,0 c -10.932,14.378 -22.521,39.809 -8.524,55.996 11.696,13.527 31.952,8.668 45.709,1.353 -3.968,8.044 -10.039,22.633 -2.947,30.588 7.797,8.745 26.412,3.497 35.67,0.422 -4.939,10.089 -12.559,29.97 -3.931,40.069 9.498,11.112 31.043,1.495 41.154,-3.664 1.489,14.504 7.105,49.275 26.412,51.306 18.239,1.917 31.064,-27.166 35.821,-40.531 4.698,9.195 14.433,24.938 27.005,21.6 12.352,-3.283 18.095,-22.417 20.022,-33.262 6.706,9.096 18.132,21.583 30.712,19.85 12.246,-1.686 18.847,-15.844 22.193,-26.265 14.936,14.813 41.275,32.581 63.158,22.5 21.083,-9.715 21.572,-37.42 15.261,-56.59 1.217,16.924 1.051,43.987 -17.196,52.394 -22.515,10.373 -49.108,-12.2 -63.448,-27.255 -2.794,10.043 -8.152,28.929 -20.584,30.639 -13.778,1.898 -26.697,-18.251 -33.108,-27.919 -1.28,11.049 -4.942,37.92 -18.186,41.439 -12.406,3.296 -22.754,-21.228 -26.572,-29.669 -4.109,12.873 -16.613,50.366 -34.605,48.473 -17.602,-1.849 -21.778,-40.909 -22.894,-54.064 -8.607,4.636 -33.16,17.932 -41.635,8.014 C 60.522,114.934 74.358,89.573 79.715,79.866 71.017,83.133 45.359,93.463 37.693,84.862 29.873,76.091 45.43,51.793 50.025,43.835 36.161,52.937 9.628,69.932 -5.035,52.977 -18.658,37.215 -3.731,11.993 6.784,-1.159 -9.587,-11.413 -41.433,-38.783 -25.87,-60.351 -46.231,-39.165 -18.407,-12.039 0,0"
         style="fill:#c6e446;fill-opacity:1;fill-rule:evenodd;stroke:none"
         transform="matrix(1.3333333,0,0,-1.3333333,302.30987,302.2044)"
         clip-path="url(#clipPath30)" />
      <path
         id="path31"
         d="m 0,0 c -0.224,7.046 -1.186,13.697 -3.053,16.999 -2.199,3.887 -5.399,7.201 -8.607,10.525 -18.619,19.293 -15.405,33.361 -3.514,54.557 8.534,15.222 9.229,19.141 23.851,33.457 6.969,6.824 13.427,13.148 15.121,20.46 3.586,15.461 -19.786,18.991 -30.225,20.162 14.198,-0.088 39.38,-1.138 34.73,-21.193 C 26.299,126.332 19.381,119.558 11.915,112.245 -1.068,99.537 -2.872,94.568 -11.141,79.82 -22.321,59.886 -25.381,48.39 -8.333,30.727 -4.925,27.195 -1.525,23.672 0.964,19.279 3.225,15.28 4.367,7.848 4.614,0.144 5.014,-12.399 6.23,-25.233 -7.149,-32.764 1.81,-24.999 0.338,-10.646 0,0"
         style="fill:#da8a38;fill-opacity:1;fill-rule:evenodd;stroke:none"
         transform="matrix(1.3333333,0,0,-1.3333333,529.7396,622.03907)"
         clip-path="url(#clipPath32)" />
    </g>
  </g>
</svg>
